<?xml version="1.0" encoding="UTF-8" standalone="no"?>
<!DOCTYPE svg PUBLIC "-//W3C//DTD SVG 1.1//EN"
 "http://www.w3.org/Graphics/SVG/1.1/DTD/svg11.dtd">
<!-- Generated by graphviz version 2.43.0 (0)
 -->
<!-- Title: G Pages: 1 -->
<svg width="513pt" height="137pt"
 viewBox="0.00 0.00 513.01 137.00" xmlns="http://www.w3.org/2000/svg" xmlns:xlink="http://www.w3.org/1999/xlink">
<g id="graph0" class="graph" transform="scale(1 1) rotate(0) translate(4 133)">
<title>G</title>
<polygon fill="white" stroke="transparent" points="-4,4 -4,-133 509.01,-133 509.01,4 -4,4"/>
<!-- init -->
<g id="node1" class="node">
<title>init</title>
<ellipse fill="none" stroke="black" cx="27" cy="-57" rx="27" ry="18"/>
<text text-anchor="middle" x="27" y="-53.3" font-family="Times,serif" font-size="14.00">init</text>
</g>
<!-- while i &lt; 5 -->
<g id="node2" class="node">
<title>while i &lt; 5</title>
<polygon fill="none" stroke="green" points="177.4,-75 91.1,-57 177.4,-39 263.7,-57 177.4,-75"/>
<text text-anchor="middle" x="177.4" y="-53.3" font-family="Times,serif" font-size="14.00">while i &lt; 5</text>
</g>
<!-- init&#45;&gt;while i &lt; 5 -->
<g id="edge1" class="edge">
<title>init&#45;&gt;while i &lt; 5</title>
<path fill="none" stroke="black" d="M54.19,-57C62.03,-57 71.13,-57 80.75,-57"/>
<polygon fill="black" stroke="black" points="80.94,-60.5 90.94,-57 80.94,-53.5 80.94,-60.5"/>
</g>
<!-- body -->
<g id="node3" class="node">
<title>body</title>
<ellipse fill="none" stroke="black" cx="342.95" cy="-111" rx="33.29" ry="18"/>
<text text-anchor="middle" x="342.95" y="-107.3" font-family="Times,serif" font-size="14.00">body</text>
</g>
<!-- while i &lt; 5&#45;&gt;body -->
<g id="edge2" class="edge">
<title>while i &lt; 5&#45;&gt;body</title>
<path fill="none" stroke="black" stroke-dasharray="5,2" d="M211.5,-67.93C238.43,-76.82 276.44,-89.37 304.49,-98.63"/>
<polygon fill="black" stroke="black" points="303.74,-102.07 314.33,-101.88 305.93,-95.42 303.74,-102.07"/>
<text text-anchor="middle" x="286.8" y="-96.8" font-family="Times,serif" font-size="14.00">0</text>
</g>
<!-- done -->
<g id="node4" class="node">
<title>done</title>
<ellipse fill="none" stroke="black" cx="342.95" cy="-57" rx="33.29" ry="18"/>
<text text-anchor="middle" x="342.95" y="-53.3" font-family="Times,serif" font-size="14.00">done</text>
</g>
<!-- while i &lt; 5&#45;&gt;done -->
<g id="edge3" class="edge">
<title>while i &lt; 5&#45;&gt;done</title>
<path fill="none" stroke="black" stroke-dasharray="5,2" d="M264.01,-57C276.31,-57 288.49,-57 299.44,-57"/>
<polygon fill="black" stroke="black" points="299.53,-60.5 309.53,-57 299.53,-53.5 299.53,-60.5"/>
<text text-anchor="middle" x="286.8" y="-60.8" font-family="Times,serif" font-size="14.00">1</text>
</g>
<!-- back -->
<g id="node5" class="node">
<title>back</title>
<polygon fill="none" stroke="green" points="459.05,-36 413.14,-18 459.05,0 504.97,-18 459.05,-36"/>
<text text-anchor="middle" x="459.05" y="-14.3" font-family="Times,serif" font-size="14.00">back</text>
</g>
<!-- body&#45;&gt;back -->
<g id="edge4" class="edge">
<title>body&#45;&gt;back</title>
<path fill="none" stroke="black" d="M362.03,-96.26C381.89,-80.08 413.82,-54.05 435.35,-36.5"/>
<polygon fill="black" stroke="black" points="437.78,-39.04 443.32,-30.01 433.36,-33.61 437.78,-39.04"/>
</g>
<!-- back&#45;&gt;while i &lt; 5 -->
<g id="edge5" class="edge">
<title>back&#45;&gt;while i &lt; 5</title>
<path fill="none" stroke="black" stroke-dasharray="5,2" d="M417.63,-16.23C404.39,-15.72 389.62,-15.25 376.1,-15 346.64,-14.46 338.91,-10.46 309.8,-15 277.38,-20.06 242.03,-31.73 216.17,-41.49"/>
<polygon fill="black" stroke="black" points="214.82,-38.26 206.75,-45.12 217.34,-44.79 214.82,-38.26"/>
<text text-anchor="middle" x="342.95" y="-18.8" font-family="Times,serif" font-size="14.00">0</text>
</g>
</g>
</svg>
