<?xml version="1.0" encoding="UTF-8" standalone="no"?>
<!DOCTYPE svg PUBLIC "-//W3C//DTD SVG 1.1//EN"
 "http://www.w3.org/Graphics/SVG/1.1/DTD/svg11.dtd">
<!-- Generated by graphviz version 2.43.0 (0)
 -->
<!-- Title: G Pages: 1 -->
<svg width="602pt" height="334pt"
 viewBox="0.00 0.00 601.98 334.00" xmlns="http://www.w3.org/2000/svg" xmlns:xlink="http://www.w3.org/1999/xlink">
<g id="graph0" class="graph" transform="scale(1 1) rotate(0) translate(4 330)">
<title>G</title>
<polygon fill="white" stroke="transparent" points="-4,4 -4,-330 597.98,-330 597.98,4 -4,4"/>
<g id="clust1" class="cluster">
<title>cluster_sub2</title>
<polygon fill="#f5f5f5" stroke="black" stroke-dasharray="5,2" points="424.98,-167 424.98,-318 585.98,-318 585.98,-167 424.98,-167"/>
<text text-anchor="middle" x="505.48" y="-302.8" font-family="Times,serif" font-size="14.00">sub2</text>
</g>
<g id="clust2" class="cluster">
<title>cluster_sub1</title>
<polygon fill="#f5f5f5" stroke="black" stroke-dasharray="5,2" points="424.98,-8 424.98,-159 585.98,-159 585.98,-8 424.98,-8"/>
<text text-anchor="middle" x="505.48" y="-143.8" font-family="Times,serif" font-size="14.00">sub1</text>
</g>
<!-- A3 -->
<g id="node1" class="node">
<title>A3</title>
<ellipse fill="none" stroke="black" cx="459.98" cy="-269" rx="27" ry="18"/>
<text text-anchor="middle" x="459.98" y="-265.3" font-family="Times,serif" font-size="14.00">A3</text>
</g>
<!-- B3 -->
<g id="node2" class="node">
<title>B3</title>
<ellipse fill="none" stroke="black" cx="550.98" cy="-242" rx="27" ry="18"/>
<text text-anchor="middle" x="550.98" y="-238.3" font-family="Times,serif" font-size="14.00">B3</text>
</g>
<!-- A3&#45;&gt;B3 -->
<g id="edge1" class="edge">
<title>A3&#45;&gt;B3</title>
<path fill="none" stroke="black" d="M484.83,-261.76C494.5,-258.83 505.85,-255.39 516.35,-252.2"/>
<polygon fill="black" stroke="black" points="517.51,-255.51 526.06,-249.26 515.47,-248.81 517.51,-255.51"/>
</g>
<!-- C3 -->
<g id="node3" class="node">
<title>C3</title>
<ellipse fill="none" stroke="black" cx="459.98" cy="-215" rx="27" ry="18"/>
<text text-anchor="middle" x="459.98" y="-211.3" font-family="Times,serif" font-size="14.00">C3</text>
</g>
<!-- C3&#45;&gt;B3 -->
<g id="edge2" class="edge">
<title>C3&#45;&gt;B3</title>
<path fill="none" stroke="black" d="M484.83,-222.24C494.5,-225.17 505.85,-228.61 516.35,-231.8"/>
<polygon fill="black" stroke="black" points="515.47,-235.19 526.06,-234.74 517.51,-228.49 515.47,-235.19"/>
</g>
<!-- sub2 -->
<g id="node4" class="node">
<title>sub2</title>
<ellipse fill="black" stroke="black" cx="459.98" cy="-177" rx="1.8" ry="1.8"/>
</g>
<!-- A2 -->
<g id="node5" class="node">
<title>A2</title>
<ellipse fill="none" stroke="black" cx="459.98" cy="-110" rx="27" ry="18"/>
<text text-anchor="middle" x="459.98" y="-106.3" font-family="Times,serif" font-size="14.00">A2</text>
</g>
<!-- B2 -->
<g id="node6" class="node">
<title>B2</title>
<ellipse fill="none" stroke="black" cx="550.98" cy="-83" rx="27" ry="18"/>
<text text-anchor="middle" x="550.98" y="-79.3" font-family="Times,serif" font-size="14.00">B2</text>
</g>
<!-- A2&#45;&gt;B2 -->
<g id="edge3" class="edge">
<title>A2&#45;&gt;B2</title>
<path fill="none" stroke="black" d="M484.83,-102.76C494.5,-99.83 505.85,-96.39 516.35,-93.2"/>
<polygon fill="black" stroke="black" points="517.51,-96.51 526.06,-90.26 515.47,-89.81 517.51,-96.51"/>
</g>
<!-- C2 -->
<g id="node7" class="node">
<title>C2</title>
<ellipse fill="none" stroke="black" cx="459.98" cy="-56" rx="27" ry="18"/>
<text text-anchor="middle" x="459.98" y="-52.3" font-family="Times,serif" font-size="14.00">C2</text>
</g>
<!-- C2&#45;&gt;B2 -->
<g id="edge4" class="edge">
<title>C2&#45;&gt;B2</title>
<path fill="none" stroke="black" d="M484.83,-63.24C494.5,-66.17 505.85,-69.61 516.35,-72.8"/>
<polygon fill="black" stroke="black" points="515.47,-76.19 526.06,-75.74 517.51,-69.49 515.47,-76.19"/>
</g>
<!-- sub1 -->
<g id="node8" class="node">
<title>sub1</title>
<ellipse fill="black" stroke="black" cx="459.98" cy="-18" rx="1.8" ry="1.8"/>
</g>
<!-- A -->
<g id="node9" class="node">
<title>A</title>
<ellipse fill="none" stroke="black" cx="118" cy="-143" rx="27" ry="18"/>
<text text-anchor="middle" x="118" y="-139.3" font-family="Times,serif" font-size="14.00">A</text>
</g>
<!-- B -->
<g id="node10" class="node">
<title>B</title>
<ellipse fill="none" stroke="black" cx="209" cy="-97" rx="27" ry="18"/>
<text text-anchor="middle" x="209" y="-93.3" font-family="Times,serif" font-size="14.00">B</text>
</g>
<!-- A&#45;&gt;B -->
<g id="edge5" class="edge">
<title>A&#45;&gt;B</title>
<path fill="none" stroke="black" d="M140.09,-132.1C151.4,-126.26 165.52,-118.96 177.96,-112.53"/>
<polygon fill="black" stroke="black" points="179.78,-115.52 187.06,-107.82 176.57,-109.31 179.78,-115.52"/>
</g>
<!-- binary -->
<g id="node11" class="node">
<title>binary</title>
<polygon fill="none" stroke="green" points="329.99,-115 273.01,-97 329.99,-79 386.96,-97 329.99,-115"/>
<text text-anchor="middle" x="329.99" y="-93.3" font-family="Times,serif" font-size="14.00">binary</text>
</g>
<!-- B&#45;&gt;binary -->
<g id="edge6" class="edge">
<title>B&#45;&gt;binary</title>
<path fill="none" stroke="black" d="M236.11,-97C244.05,-97 253.16,-97 262.5,-97"/>
<polygon fill="black" stroke="black" points="262.69,-100.5 272.69,-97 262.69,-93.5 262.69,-100.5"/>
</g>
<!-- binary&#45;&gt;sub2 -->
<g id="edge12" class="edge">
<title>binary&#45;&gt;sub2</title>
<path fill="none" stroke="black" stroke-dasharray="5,2" d="M346.91,-109.84C365.05,-124.06 395.95,-147.09 424.98,-163 432.52,-167.13 441.54,-170.8 448.4,-173.34"/>
<polygon fill="black" stroke="black" points="447.51,-176.73 458.1,-176.72 449.81,-170.12 447.51,-176.73"/>
<text text-anchor="middle" x="409.98" y="-159.8" font-family="Times,serif" font-size="14.00">1</text>
</g>
<!-- binary&#45;&gt;sub1 -->
<g id="edge11" class="edge">
<title>binary&#45;&gt;sub1</title>
<path fill="none" stroke="black" stroke-dasharray="5,2" d="M345.97,-83.85C363.75,-68.81 394.8,-44.31 424.98,-29 432.43,-25.22 441.46,-22.37 448.34,-20.52"/>
<polygon fill="black" stroke="black" points="449.19,-23.91 458.1,-18.18 447.55,-17.11 449.19,-23.91"/>
<text text-anchor="middle" x="409.98" y="-42.8" font-family="Times,serif" font-size="14.00">0</text>
</g>
<!-- C -->
<g id="node12" class="node">
<title>C</title>
<ellipse fill="none" stroke="black" cx="118" cy="-51" rx="27" ry="18"/>
<text text-anchor="middle" x="118" y="-47.3" font-family="Times,serif" font-size="14.00">C</text>
</g>
<!-- C&#45;&gt;B -->
<g id="edge7" class="edge">
<title>C&#45;&gt;B</title>
<path fill="none" stroke="black" d="M140.09,-61.9C151.4,-67.74 165.52,-75.04 177.96,-81.47"/>
<polygon fill="black" stroke="black" points="176.57,-84.69 187.06,-86.18 179.78,-78.48 176.57,-84.69"/>
</g>
<!-- A1 -->
<g id="node13" class="node">
<title>A1</title>
<ellipse fill="none" stroke="black" cx="27" cy="-97" rx="27" ry="18"/>
<text text-anchor="middle" x="27" y="-93.3" font-family="Times,serif" font-size="14.00">A1</text>
</g>
<!-- A1&#45;&gt;B -->
<g id="edge8" class="edge">
<title>A1&#45;&gt;B</title>
<path fill="none" stroke="black" d="M54.17,-97C85.1,-97 136.75,-97 171.57,-97"/>
<polygon fill="black" stroke="black" points="171.79,-100.5 181.79,-97 171.79,-93.5 171.79,-100.5"/>
</g>
<!-- A1&#45;&gt;C -->
<g id="edge9" class="edge">
<title>A1&#45;&gt;C</title>
<path fill="none" stroke="black" d="M49.09,-86.1C60.4,-80.26 74.52,-72.96 86.96,-66.53"/>
<polygon fill="black" stroke="black" points="88.78,-69.52 96.06,-61.82 85.57,-63.31 88.78,-69.52"/>
</g>
<!-- B1 -->
<g id="node14" class="node">
<title>B1</title>
<ellipse fill="none" stroke="black" cx="27" cy="-43" rx="27" ry="18"/>
<text text-anchor="middle" x="27" y="-39.3" font-family="Times,serif" font-size="14.00">B1</text>
</g>
<!-- B1&#45;&gt;C -->
<g id="edge10" class="edge">
<title>B1&#45;&gt;C</title>
<path fill="none" stroke="black" d="M54.22,-45.36C62.55,-46.11 71.91,-46.95 80.82,-47.75"/>
<polygon fill="black" stroke="black" points="80.69,-51.25 90.97,-48.66 81.32,-44.28 80.69,-51.25"/>
</g>
<!-- C1 -->
<g id="node15" class="node">
<title>C1</title>
<ellipse fill="none" stroke="black" cx="27" cy="-151" rx="27" ry="18"/>
<text text-anchor="middle" x="27" y="-147.3" font-family="Times,serif" font-size="14.00">C1</text>
</g>
</g>
</svg>
