<?xml version="1.0" encoding="UTF-8" standalone="no"?>
<!DOCTYPE svg PUBLIC "-//W3C//DTD SVG 1.1//EN"
 "http://www.w3.org/Graphics/SVG/1.1/DTD/svg11.dtd">
<!-- Generated by graphviz version 2.43.0 (0)
 -->
<!-- Title: G Pages: 1 -->
<svg width="94pt" height="319pt"
 viewBox="0.00 0.00 94.00 319.00" xmlns="http://www.w3.org/2000/svg" xmlns:xlink="http://www.w3.org/1999/xlink">
<g id="graph0" class="graph" transform="scale(1 1) rotate(0) translate(4 315)">
<title>G</title>
<polygon fill="white" stroke="transparent" points="-4,4 -4,-315 90,-315 90,4 -4,4"/>
<g id="clust1" class="cluster">
<title>cluster_sub1</title>
<polygon fill="#f5f5f5" stroke="black" stroke-dasharray="5,2" points="8,-8 8,-213 78,-213 78,-8 8,-8"/>
<text text-anchor="middle" x="43" y="-197.8" font-family="Times,serif" font-size="14.00" fill="purple">sub1</text>
</g>
<!-- A2 -->
<g id="node1" class="node">
<title>A2</title>
<ellipse fill="none" stroke="purple" cx="43" cy="-164" rx="27" ry="18"/>
<text text-anchor="middle" x="43" y="-160.3" font-family="Times,serif" font-size="14.00">A2</text>
</g>
<!-- B2 -->
<g id="node2" class="node">
<title>B2</title>
<ellipse fill="none" stroke="#f5427b" cx="43" cy="-110" rx="27" ry="18"/>
<text text-anchor="middle" x="43" y="-106.3" font-family="Times,serif" font-size="14.00">B2</text>
</g>
<!-- C2 -->
<g id="node3" class="node">
<title>C2</title>
<ellipse fill="none" stroke="black" cx="43" cy="-56" rx="27" ry="18"/>
<text text-anchor="middle" x="43" y="-52.3" font-family="Times,serif" font-size="14.00">C2</text>
</g>
<!-- sub1 -->
<g id="node4" class="node">
<title>sub1</title>
<ellipse fill="black" stroke="black" cx="43" cy="-18" rx="1.8" ry="1.8"/>
</g>
<!-- B -->
<g id="node5" class="node">
<title>B</title>
<ellipse fill="none" stroke="black" cx="43" cy="-239" rx="27" ry="18"/>
<text text-anchor="middle" x="43" y="-235.3" font-family="Times,serif" font-size="14.00">B</text>
</g>
<!-- C -->
<g id="node6" class="node">
<title>C</title>
<ellipse fill="none" stroke="#f5427b" cx="43" cy="-293" rx="27" ry="18"/>
<text text-anchor="middle" x="43" y="-289.3" font-family="Times,serif" font-size="14.00">C</text>
</g>
</g>
</svg>
