<?xml version="1.0" encoding="UTF-8" standalone="no"?>
<!DOCTYPE svg PUBLIC "-//W3C//DTD SVG 1.1//EN"
 "http://www.w3.org/Graphics/SVG/1.1/DTD/svg11.dtd">
<!-- Generated by graphviz version 2.43.0 (0)
 -->
<!-- Title: merge sort Pages: 1 -->
<svg width="192pt" height="530pt"
 viewBox="0.00 0.00 192.19 530.00" xmlns="http://www.w3.org/2000/svg" xmlns:xlink="http://www.w3.org/1999/xlink">
<g id="graph0" class="graph" transform="scale(1 1) rotate(0) translate(4 526)">
<title>merge sort</title>
<polygon fill="white" stroke="transparent" points="-4,4 -4,-526 188.19,-526 188.19,4 -4,4"/>
<!-- Done -->
<g id="node1" class="node">
<title>Done</title>
<ellipse fill="none" stroke="black" cx="149.74" cy="-261" rx="34.39" ry="18"/>
<text text-anchor="middle" x="149.74" y="-257.3" font-family="Times,serif" font-size="14.00">Done</text>
</g>
<!-- sort_0 -->
<g id="node2" class="node">
<title>sort_0</title>
<ellipse fill="none" stroke="black" cx="39.65" cy="-504" rx="39.79" ry="18"/>
<text text-anchor="middle" x="39.65" y="-500.3" font-family="Times,serif" font-size="14.00">sort_0</text>
</g>
<!-- sort_0&#45;&gt;Done -->
<g id="edge1" class="edge">
<title>sort_0&#45;&gt;Done</title>
<path fill="none" stroke="black" d="M65.62,-490.15C70.69,-486.42 75.6,-482 79.29,-477 122.31,-418.74 139.36,-332.76 145.55,-288.92"/>
<polygon fill="black" stroke="black" points="149.02,-289.35 146.87,-278.98 142.09,-288.43 149.02,-289.35"/>
</g>
<!-- sort_1 -->
<g id="node3" class="node">
<title>sort_1</title>
<ellipse fill="none" stroke="black" cx="39.65" cy="-450" rx="39.79" ry="18"/>
<text text-anchor="middle" x="39.65" y="-446.3" font-family="Times,serif" font-size="14.00">sort_1</text>
</g>
<!-- sort_1&#45;&gt;Done -->
<g id="edge2" class="edge">
<title>sort_1&#45;&gt;Done</title>
<path fill="none" stroke="black" d="M65.27,-435.88C70.37,-432.16 75.37,-427.83 79.29,-423 112.46,-382.24 132.38,-323.26 141.9,-288.85"/>
<polygon fill="black" stroke="black" points="145.33,-289.57 144.52,-279.01 138.57,-287.77 145.33,-289.57"/>
</g>
<!-- sort_2 -->
<g id="node4" class="node">
<title>sort_2</title>
<ellipse fill="none" stroke="black" cx="39.65" cy="-396" rx="39.79" ry="18"/>
<text text-anchor="middle" x="39.65" y="-392.3" font-family="Times,serif" font-size="14.00">sort_2</text>
</g>
<!-- sort_2&#45;&gt;Done -->
<g id="edge3" class="edge">
<title>sort_2&#45;&gt;Done</title>
<path fill="none" stroke="black" d="M64.3,-381.66C69.55,-377.9 74.87,-373.6 79.29,-369 102.93,-344.44 123.11,-310.68 135.53,-287.48"/>
<polygon fill="black" stroke="black" points="138.67,-289.02 140.21,-278.54 132.47,-285.78 138.67,-289.02"/>
</g>
<!-- sort_3 -->
<g id="node5" class="node">
<title>sort_3</title>
<ellipse fill="none" stroke="black" cx="39.65" cy="-342" rx="39.79" ry="18"/>
<text text-anchor="middle" x="39.65" y="-338.3" font-family="Times,serif" font-size="14.00">sort_3</text>
</g>
<!-- sort_3&#45;&gt;Done -->
<g id="edge4" class="edge">
<title>sort_3&#45;&gt;Done</title>
<path fill="none" stroke="black" d="M62.45,-327.06C67.98,-323.18 73.89,-318.98 79.29,-315 93.61,-304.44 109.28,-292.31 122.1,-282.23"/>
<polygon fill="black" stroke="black" points="124.4,-284.87 130.07,-275.93 120.06,-279.38 124.4,-284.87"/>
</g>
<!-- sort_4 -->
<g id="node6" class="node">
<title>sort_4</title>
<ellipse fill="none" stroke="black" cx="39.65" cy="-288" rx="39.79" ry="18"/>
<text text-anchor="middle" x="39.65" y="-284.3" font-family="Times,serif" font-size="14.00">sort_4</text>
</g>
<!-- sort_4&#45;&gt;Done -->
<g id="edge5" class="edge">
<title>sort_4&#45;&gt;Done</title>
<path fill="none" stroke="black" d="M74.85,-279.46C85.55,-276.78 97.46,-273.81 108.53,-271.04"/>
<polygon fill="black" stroke="black" points="109.56,-274.39 118.41,-268.57 107.86,-267.6 109.56,-274.39"/>
</g>
<!-- sort_5 -->
<g id="node7" class="node">
<title>sort_5</title>
<ellipse fill="none" stroke="black" cx="39.65" cy="-234" rx="39.79" ry="18"/>
<text text-anchor="middle" x="39.65" y="-230.3" font-family="Times,serif" font-size="14.00">sort_5</text>
</g>
<!-- sort_5&#45;&gt;Done -->
<g id="edge6" class="edge">
<title>sort_5&#45;&gt;Done</title>
<path fill="none" stroke="black" d="M74.85,-242.54C85.55,-245.22 97.46,-248.19 108.53,-250.96"/>
<polygon fill="black" stroke="black" points="107.86,-254.4 118.41,-253.43 109.56,-247.61 107.86,-254.4"/>
</g>
<!-- sort_6 -->
<g id="node8" class="node">
<title>sort_6</title>
<ellipse fill="none" stroke="black" cx="39.65" cy="-180" rx="39.79" ry="18"/>
<text text-anchor="middle" x="39.65" y="-176.3" font-family="Times,serif" font-size="14.00">sort_6</text>
</g>
<!-- sort_6&#45;&gt;Done -->
<g id="edge7" class="edge">
<title>sort_6&#45;&gt;Done</title>
<path fill="none" stroke="black" d="M62.45,-194.94C67.98,-198.82 73.89,-203.02 79.29,-207 93.61,-217.56 109.28,-229.69 122.1,-239.77"/>
<polygon fill="black" stroke="black" points="120.06,-242.62 130.07,-246.07 124.4,-237.13 120.06,-242.62"/>
</g>
<!-- sort_7 -->
<g id="node9" class="node">
<title>sort_7</title>
<ellipse fill="none" stroke="black" cx="39.65" cy="-126" rx="39.79" ry="18"/>
<text text-anchor="middle" x="39.65" y="-122.3" font-family="Times,serif" font-size="14.00">sort_7</text>
</g>
<!-- sort_7&#45;&gt;Done -->
<g id="edge8" class="edge">
<title>sort_7&#45;&gt;Done</title>
<path fill="none" stroke="black" d="M64.3,-140.34C69.55,-144.1 74.87,-148.4 79.29,-153 102.93,-177.56 123.11,-211.32 135.53,-234.52"/>
<polygon fill="black" stroke="black" points="132.47,-236.22 140.21,-243.46 138.67,-232.98 132.47,-236.22"/>
</g>
<!-- sort_8 -->
<g id="node10" class="node">
<title>sort_8</title>
<ellipse fill="none" stroke="black" cx="39.65" cy="-72" rx="39.79" ry="18"/>
<text text-anchor="middle" x="39.65" y="-68.3" font-family="Times,serif" font-size="14.00">sort_8</text>
</g>
<!-- sort_8&#45;&gt;Done -->
<g id="edge9" class="edge">
<title>sort_8&#45;&gt;Done</title>
<path fill="none" stroke="black" d="M65.27,-86.12C70.37,-89.84 75.37,-94.17 79.29,-99 112.46,-139.76 132.38,-198.74 141.9,-233.15"/>
<polygon fill="black" stroke="black" points="138.57,-234.23 144.52,-242.99 145.33,-232.43 138.57,-234.23"/>
</g>
<!-- sort_9 -->
<g id="node11" class="node">
<title>sort_9</title>
<ellipse fill="none" stroke="black" cx="39.65" cy="-18" rx="39.79" ry="18"/>
<text text-anchor="middle" x="39.65" y="-14.3" font-family="Times,serif" font-size="14.00">sort_9</text>
</g>
<!-- sort_9&#45;&gt;Done -->
<g id="edge10" class="edge">
<title>sort_9&#45;&gt;Done</title>
<path fill="none" stroke="black" d="M65.62,-31.85C70.69,-35.58 75.6,-40 79.29,-45 122.31,-103.26 139.36,-189.24 145.55,-233.08"/>
<polygon fill="black" stroke="black" points="142.09,-233.57 146.87,-243.02 149.02,-232.65 142.09,-233.57"/>
</g>
</g>
</svg>
