<?xml version="1.0" encoding="UTF-8" standalone="no"?>
<!DOCTYPE svg PUBLIC "-//W3C//DTD SVG 1.1//EN"
 "http://www.w3.org/Graphics/SVG/1.1/DTD/svg11.dtd">
<!-- Generated by graphviz version 2.43.0 (0)
 -->
<!-- Title: wordcount Pages: 1 -->
<svg width="577pt" height="206pt"
 viewBox="0.00 0.00 577.46 206.00" xmlns="http://www.w3.org/2000/svg" xmlns:xlink="http://www.w3.org/1999/xlink">
<g id="graph0" class="graph" transform="scale(1 1) rotate(0) translate(4 202)">
<title>wordcount</title>
<polygon fill="white" stroke="transparent" points="-4,4 -4,-202 573.46,-202 573.46,4 -4,4"/>
<!-- split_input -->
<g id="node1" class="node">
<title>split_input</title>
<ellipse fill="none" stroke="black" cx="59.79" cy="-99" rx="59.59" ry="18"/>
<text text-anchor="middle" x="59.79" y="-95.3" font-family="Times,serif" font-size="14.00">split_input</text>
</g>
<!-- map_0 -->
<g id="node2" class="node">
<title>map_0</title>
<ellipse fill="none" stroke="black" cx="196.54" cy="-72" rx="40.89" ry="18"/>
<text text-anchor="middle" x="196.54" y="-68.3" font-family="Times,serif" font-size="14.00">map_0</text>
</g>
<!-- split_input&#45;&gt;map_0 -->
<g id="edge1" class="edge">
<title>split_input&#45;&gt;map_0</title>
<path fill="none" stroke="black" d="M110.2,-89.1C122.76,-86.58 136.21,-83.89 148.64,-81.4"/>
<polygon fill="black" stroke="black" points="149.68,-84.76 158.8,-79.36 148.31,-77.89 149.68,-84.76"/>
</g>
<!-- map_1 -->
<g id="node3" class="node">
<title>map_1</title>
<ellipse fill="none" stroke="black" cx="196.54" cy="-18" rx="40.89" ry="18"/>
<text text-anchor="middle" x="196.54" y="-14.3" font-family="Times,serif" font-size="14.00">map_1</text>
</g>
<!-- split_input&#45;&gt;map_1 -->
<g id="edge2" class="edge">
<title>split_input&#45;&gt;map_1</title>
<path fill="none" stroke="black" d="M87.42,-83C109.08,-69.97 139.75,-51.53 162.9,-37.62"/>
<polygon fill="black" stroke="black" points="164.91,-40.49 171.68,-32.34 161.31,-34.49 164.91,-40.49"/>
</g>
<!-- map_2 -->
<g id="node4" class="node">
<title>map_2</title>
<ellipse fill="none" stroke="black" cx="196.54" cy="-180" rx="40.89" ry="18"/>
<text text-anchor="middle" x="196.54" y="-176.3" font-family="Times,serif" font-size="14.00">map_2</text>
</g>
<!-- split_input&#45;&gt;map_2 -->
<g id="edge3" class="edge">
<title>split_input&#45;&gt;map_2</title>
<path fill="none" stroke="black" d="M87.42,-115C109.08,-128.03 139.75,-146.47 162.9,-160.38"/>
<polygon fill="black" stroke="black" points="161.31,-163.51 171.68,-165.66 164.91,-157.51 161.31,-163.51"/>
</g>
<!-- map_3 -->
<g id="node5" class="node">
<title>map_3</title>
<ellipse fill="none" stroke="black" cx="196.54" cy="-126" rx="40.89" ry="18"/>
<text text-anchor="middle" x="196.54" y="-122.3" font-family="Times,serif" font-size="14.00">map_3</text>
</g>
<!-- split_input&#45;&gt;map_3 -->
<g id="edge4" class="edge">
<title>split_input&#45;&gt;map_3</title>
<path fill="none" stroke="black" d="M110.2,-108.9C122.76,-111.42 136.21,-114.11 148.64,-116.6"/>
<polygon fill="black" stroke="black" points="148.31,-120.11 158.8,-118.64 149.68,-113.24 148.31,-120.11"/>
</g>
<!-- reduce_0 -->
<g id="node6" class="node">
<title>reduce_0</title>
<ellipse fill="none" stroke="black" cx="326.13" cy="-126" rx="52.79" ry="18"/>
<text text-anchor="middle" x="326.13" y="-122.3" font-family="Times,serif" font-size="14.00">reduce_0</text>
</g>
<!-- map_0&#45;&gt;reduce_0 -->
<g id="edge5" class="edge">
<title>map_0&#45;&gt;reduce_0</title>
<path fill="none" stroke="black" d="M226.81,-84.39C243.47,-91.44 264.64,-100.4 283.06,-108.19"/>
<polygon fill="black" stroke="black" points="281.83,-111.47 292.4,-112.15 284.56,-105.03 281.83,-111.47"/>
</g>
<!-- reduce_1 -->
<g id="node7" class="node">
<title>reduce_1</title>
<ellipse fill="none" stroke="black" cx="326.13" cy="-72" rx="52.79" ry="18"/>
<text text-anchor="middle" x="326.13" y="-68.3" font-family="Times,serif" font-size="14.00">reduce_1</text>
</g>
<!-- map_0&#45;&gt;reduce_1 -->
<g id="edge6" class="edge">
<title>map_0&#45;&gt;reduce_1</title>
<path fill="none" stroke="black" d="M237.56,-72C245.65,-72 254.33,-72 262.97,-72"/>
<polygon fill="black" stroke="black" points="263.07,-75.5 273.07,-72 263.07,-68.5 263.07,-75.5"/>
</g>
<!-- map_1&#45;&gt;reduce_0 -->
<g id="edge7" class="edge">
<title>map_1&#45;&gt;reduce_0</title>
<path fill="none" stroke="black" d="M221.94,-32.29C227.37,-36.05 232.88,-40.37 237.48,-45 257.81,-65.46 252.03,-79.72 273.48,-99 276.61,-101.82 280.09,-104.43 283.72,-106.83"/>
<polygon fill="black" stroke="black" points="282.01,-109.88 292.38,-112.05 285.62,-103.89 282.01,-109.88"/>
</g>
<!-- map_1&#45;&gt;reduce_1 -->
<g id="edge8" class="edge">
<title>map_1&#45;&gt;reduce_1</title>
<path fill="none" stroke="black" d="M226.81,-30.39C243.47,-37.44 264.64,-46.4 283.06,-54.19"/>
<polygon fill="black" stroke="black" points="281.83,-57.47 292.4,-58.15 284.56,-51.03 281.83,-57.47"/>
</g>
<!-- map_2&#45;&gt;reduce_0 -->
<g id="edge9" class="edge">
<title>map_2&#45;&gt;reduce_0</title>
<path fill="none" stroke="black" d="M226.81,-167.61C243.47,-160.56 264.64,-151.6 283.06,-143.81"/>
<polygon fill="black" stroke="black" points="284.56,-146.97 292.4,-139.85 281.83,-140.53 284.56,-146.97"/>
</g>
<!-- map_2&#45;&gt;reduce_1 -->
<g id="edge10" class="edge">
<title>map_2&#45;&gt;reduce_1</title>
<path fill="none" stroke="black" d="M221.94,-165.71C227.37,-161.95 232.88,-157.63 237.48,-153 257.81,-132.54 252.03,-118.28 273.48,-99 276.61,-96.18 280.09,-93.57 283.72,-91.17"/>
<polygon fill="black" stroke="black" points="285.62,-94.11 292.38,-85.95 282.01,-88.12 285.62,-94.11"/>
</g>
<!-- map_3&#45;&gt;reduce_0 -->
<g id="edge11" class="edge">
<title>map_3&#45;&gt;reduce_0</title>
<path fill="none" stroke="black" d="M237.56,-126C245.65,-126 254.33,-126 262.97,-126"/>
<polygon fill="black" stroke="black" points="263.07,-129.5 273.07,-126 263.07,-122.5 263.07,-129.5"/>
</g>
<!-- map_3&#45;&gt;reduce_1 -->
<g id="edge12" class="edge">
<title>map_3&#45;&gt;reduce_1</title>
<path fill="none" stroke="black" d="M226.81,-113.61C243.47,-106.56 264.64,-97.6 283.06,-89.81"/>
<polygon fill="black" stroke="black" points="284.56,-92.97 292.4,-85.85 281.83,-86.53 284.56,-92.97"/>
</g>
<!-- merge_results -->
<g id="node8" class="node">
<title>merge_results</title>
<ellipse fill="none" stroke="black" cx="492.12" cy="-99" rx="77.19" ry="18"/>
<text text-anchor="middle" x="492.12" y="-95.3" font-family="Times,serif" font-size="14.00">merge_results</text>
</g>
<!-- reduce_0&#45;&gt;merge_results -->
<g id="edge13" class="edge">
<title>reduce_0&#45;&gt;merge_results</title>
<path fill="none" stroke="black" d="M374.12,-118.26C387.88,-116 403.27,-113.46 418.24,-111"/>
<polygon fill="black" stroke="black" points="419.22,-114.38 428.52,-109.31 418.08,-107.48 419.22,-114.38"/>
</g>
<!-- reduce_1&#45;&gt;merge_results -->
<g id="edge14" class="edge">
<title>reduce_1&#45;&gt;merge_results</title>
<path fill="none" stroke="black" d="M374.12,-79.74C387.88,-82 403.27,-84.54 418.24,-87"/>
<polygon fill="black" stroke="black" points="418.08,-90.52 428.52,-88.69 419.22,-83.62 418.08,-90.52"/>
</g>
</g>
</svg>
