<?xml version="1.0" encoding="UTF-8" standalone="no"?>
<!DOCTYPE svg PUBLIC "-//W3C//DTD SVG 1.1//EN"
 "http://www.w3.org/Graphics/SVG/1.1/DTD/svg11.dtd">
<!-- Generated by graphviz version 2.43.0 (0)
 -->
<!-- Title: G Pages: 1 -->
<svg width="348pt" height="426pt"
 viewBox="0.00 0.00 348.00 426.00" xmlns="http://www.w3.org/2000/svg" xmlns:xlink="http://www.w3.org/1999/xlink">
<g id="graph0" class="graph" transform="scale(1 1) rotate(0) translate(4 422)">
<title>G</title>
<polygon fill="white" stroke="transparent" points="-4,4 -4,-422 344,-422 344,4 -4,4"/>
<g id="clust1" class="cluster">
<title>cluster_sub2</title>
<polygon fill="#f5f5f5" stroke="black" stroke-dasharray="5,2" points="172,-100 172,-251 332,-251 332,-100 172,-100"/>
<text text-anchor="middle" x="252" y="-235.8" font-family="Times,serif" font-size="14.00">sub2</text>
</g>
<g id="clust2" class="cluster">
<title>cluster_sub1</title>
<polygon fill="#f5f5f5" stroke="black" stroke-dasharray="5,2" points="82,-259 82,-410 242,-410 242,-259 82,-259"/>
<text text-anchor="middle" x="162" y="-394.8" font-family="Times,serif" font-size="14.00">sub1</text>
</g>
<!-- A3 -->
<g id="node1" class="node">
<title>A3</title>
<ellipse fill="none" stroke="black" cx="207" cy="-202" rx="27" ry="18"/>
<text text-anchor="middle" x="207" y="-198.3" font-family="Times,serif" font-size="14.00">A3</text>
</g>
<!-- B3 -->
<g id="node2" class="node">
<title>B3</title>
<ellipse fill="none" stroke="black" cx="297" cy="-175" rx="27" ry="18"/>
<text text-anchor="middle" x="297" y="-171.3" font-family="Times,serif" font-size="14.00">B3</text>
</g>
<!-- A3&#45;&gt;B3 -->
<g id="edge1" class="edge">
<title>A3&#45;&gt;B3</title>
<path fill="none" stroke="black" d="M232.05,-194.62C241.44,-191.74 252.36,-188.39 262.5,-185.28"/>
<polygon fill="black" stroke="black" points="263.75,-188.55 272.29,-182.28 261.7,-181.86 263.75,-188.55"/>
</g>
<!-- C3 -->
<g id="node3" class="node">
<title>C3</title>
<ellipse fill="none" stroke="black" cx="207" cy="-148" rx="27" ry="18"/>
<text text-anchor="middle" x="207" y="-144.3" font-family="Times,serif" font-size="14.00">C3</text>
</g>
<!-- C3&#45;&gt;B3 -->
<g id="edge2" class="edge">
<title>C3&#45;&gt;B3</title>
<path fill="none" stroke="black" d="M232.05,-155.38C241.44,-158.26 252.36,-161.61 262.5,-164.72"/>
<polygon fill="black" stroke="black" points="261.7,-168.14 272.29,-167.72 263.75,-161.45 261.7,-168.14"/>
</g>
<!-- sub2 -->
<g id="node4" class="node">
<title>sub2</title>
<ellipse fill="black" stroke="black" cx="207" cy="-110" rx="1.8" ry="1.8"/>
</g>
<!-- A2 -->
<g id="node5" class="node">
<title>A2</title>
<ellipse fill="none" stroke="black" cx="117" cy="-361" rx="27" ry="18"/>
<text text-anchor="middle" x="117" y="-357.3" font-family="Times,serif" font-size="14.00">A2</text>
</g>
<!-- B2 -->
<g id="node6" class="node">
<title>B2</title>
<ellipse fill="none" stroke="black" cx="207" cy="-334" rx="27" ry="18"/>
<text text-anchor="middle" x="207" y="-330.3" font-family="Times,serif" font-size="14.00">B2</text>
</g>
<!-- A2&#45;&gt;B2 -->
<g id="edge3" class="edge">
<title>A2&#45;&gt;B2</title>
<path fill="none" stroke="black" d="M142.05,-353.62C151.44,-350.74 162.36,-347.39 172.5,-344.28"/>
<polygon fill="black" stroke="black" points="173.75,-347.55 182.29,-341.28 171.7,-340.86 173.75,-347.55"/>
</g>
<!-- C2 -->
<g id="node7" class="node">
<title>C2</title>
<ellipse fill="none" stroke="black" cx="117" cy="-307" rx="27" ry="18"/>
<text text-anchor="middle" x="117" y="-303.3" font-family="Times,serif" font-size="14.00">C2</text>
</g>
<!-- C2&#45;&gt;B2 -->
<g id="edge4" class="edge">
<title>C2&#45;&gt;B2</title>
<path fill="none" stroke="black" d="M142.05,-314.38C151.44,-317.26 162.36,-320.61 172.5,-323.72"/>
<polygon fill="black" stroke="black" points="171.7,-327.14 182.29,-326.72 173.75,-320.45 171.7,-327.14"/>
</g>
<!-- sub1 -->
<g id="node8" class="node">
<title>sub1</title>
<ellipse fill="black" stroke="black" cx="117" cy="-269" rx="1.8" ry="1.8"/>
</g>
<!-- sub1&#45;&gt;sub2 -->
<g id="edge11" class="edge">
<title>sub1&#45;&gt;sub2</title>
<path fill="none" stroke="black" d="M118.09,-267.25C118.85,-253.78 125.52,-165.79 172,-121 178.18,-115.05 187.6,-112.32 194.96,-111.06"/>
<polygon fill="black" stroke="black" points="195.42,-114.53 205.01,-110.02 194.7,-107.57 195.42,-114.53"/>
</g>
<!-- B -->
<g id="node10" class="node">
<title>B</title>
<ellipse fill="none" stroke="black" cx="207" cy="-72" rx="27" ry="18"/>
<text text-anchor="middle" x="207" y="-68.3" font-family="Times,serif" font-size="14.00">B</text>
</g>
<!-- sub1&#45;&gt;B -->
<g id="edge10" class="edge">
<title>sub1&#45;&gt;B</title>
<path fill="none" stroke="black" d="M118.11,-267.45C119.13,-254.04 127.92,-156.54 172,-96 173.56,-93.85 175.38,-91.83 177.34,-89.93"/>
<polygon fill="black" stroke="black" points="179.91,-92.35 185.42,-83.3 175.47,-86.94 179.91,-92.35"/>
</g>
<!-- A -->
<g id="node9" class="node">
<title>A</title>
<ellipse fill="none" stroke="black" cx="117" cy="-118" rx="27" ry="18"/>
<text text-anchor="middle" x="117" y="-114.3" font-family="Times,serif" font-size="14.00">A</text>
</g>
<!-- A&#45;&gt;B -->
<g id="edge5" class="edge">
<title>A&#45;&gt;B</title>
<path fill="none" stroke="black" d="M138.85,-107.1C150.03,-101.26 164,-93.96 176.29,-87.53"/>
<polygon fill="black" stroke="black" points="178.05,-90.56 185.29,-82.82 174.81,-84.35 178.05,-90.56"/>
</g>
<!-- C -->
<g id="node11" class="node">
<title>C</title>
<ellipse fill="none" stroke="black" cx="117" cy="-26" rx="27" ry="18"/>
<text text-anchor="middle" x="117" y="-22.3" font-family="Times,serif" font-size="14.00">C</text>
</g>
<!-- C&#45;&gt;B -->
<g id="edge6" class="edge">
<title>C&#45;&gt;B</title>
<path fill="none" stroke="black" d="M138.85,-36.9C150.03,-42.74 164,-50.04 176.29,-56.47"/>
<polygon fill="black" stroke="black" points="174.81,-59.65 185.29,-61.18 178.05,-53.44 174.81,-59.65"/>
</g>
<!-- A1 -->
<g id="node12" class="node">
<title>A1</title>
<ellipse fill="none" stroke="black" cx="27" cy="-72" rx="27" ry="18"/>
<text text-anchor="middle" x="27" y="-68.3" font-family="Times,serif" font-size="14.00">A1</text>
</g>
<!-- A1&#45;&gt;B -->
<g id="edge7" class="edge">
<title>A1&#45;&gt;B</title>
<path fill="none" stroke="black" d="M54.26,-72C84.85,-72 135.55,-72 169.84,-72"/>
<polygon fill="black" stroke="black" points="169.92,-75.5 179.92,-72 169.92,-68.5 169.92,-75.5"/>
</g>
<!-- A1&#45;&gt;C -->
<g id="edge8" class="edge">
<title>A1&#45;&gt;C</title>
<path fill="none" stroke="black" d="M48.85,-61.1C60.03,-55.26 74,-47.96 86.29,-41.53"/>
<polygon fill="black" stroke="black" points="88.05,-44.56 95.29,-36.82 84.81,-38.35 88.05,-44.56"/>
</g>
<!-- B1 -->
<g id="node13" class="node">
<title>B1</title>
<ellipse fill="none" stroke="black" cx="27" cy="-18" rx="27" ry="18"/>
<text text-anchor="middle" x="27" y="-14.3" font-family="Times,serif" font-size="14.00">B1</text>
</g>
<!-- B1&#45;&gt;C -->
<g id="edge9" class="edge">
<title>B1&#45;&gt;C</title>
<path fill="none" stroke="black" d="M53.93,-20.36C62.09,-21.1 71.26,-21.93 79.99,-22.73"/>
<polygon fill="black" stroke="black" points="79.68,-26.21 89.95,-23.63 80.31,-19.24 79.68,-26.21"/>
</g>
<!-- C1 -->
<g id="node14" class="node">
<title>C1</title>
<ellipse fill="none" stroke="black" cx="27" cy="-126" rx="27" ry="18"/>
<text text-anchor="middle" x="27" y="-122.3" font-family="Times,serif" font-size="14.00">C1</text>
</g>
</g>
</svg>
