<?xml version="1.0" encoding="UTF-8" standalone="no"?>
<!DOCTYPE svg PUBLIC "-//W3C//DTD SVG 1.1//EN"
 "http://www.w3.org/Graphics/SVG/1.1/DTD/svg11.dtd">
<!-- Generated by graphviz version 2.43.0 (0)
 -->
<!-- Title: fibonacci Pages: 1 -->
<svg width="875pt" height="98pt"
 viewBox="0.00 0.00 875.19 98.00" xmlns="http://www.w3.org/2000/svg" xmlns:xlink="http://www.w3.org/1999/xlink">
<g id="graph0" class="graph" transform="scale(1 1) rotate(0) translate(4 94)">
<title>fibonacci</title>
<polygon fill="white" stroke="transparent" points="-4,4 -4,-94 871.19,-94 871.19,4 -4,4"/>
<!-- F0 -->
<g id="node1" class="node">
<title>F0</title>
<ellipse fill="none" stroke="black" cx="27" cy="-72" rx="27" ry="18"/>
<text text-anchor="middle" x="27" y="-68.3" font-family="Times,serif" font-size="14.00">F0</text>
</g>
<!-- F2 -->
<g id="node2" class="node">
<title>F2</title>
<ellipse fill="none" stroke="black" cx="117" cy="-64" rx="27" ry="18"/>
<text text-anchor="middle" x="117" y="-60.3" font-family="Times,serif" font-size="14.00">F2</text>
</g>
<!-- F0&#45;&gt;F2 -->
<g id="edge1" class="edge">
<title>F0&#45;&gt;F2</title>
<path fill="none" stroke="black" d="M53.93,-69.64C62.09,-68.9 71.26,-68.07 79.99,-67.27"/>
<polygon fill="black" stroke="black" points="80.31,-70.76 89.95,-66.37 79.68,-63.79 80.31,-70.76"/>
</g>
<!-- F3 -->
<g id="node4" class="node">
<title>F3</title>
<ellipse fill="none" stroke="black" cx="207" cy="-18" rx="27" ry="18"/>
<text text-anchor="middle" x="207" y="-14.3" font-family="Times,serif" font-size="14.00">F3</text>
</g>
<!-- F2&#45;&gt;F3 -->
<g id="edge4" class="edge">
<title>F2&#45;&gt;F3</title>
<path fill="none" stroke="black" d="M138.85,-53.1C150.03,-47.26 164,-39.96 176.29,-33.53"/>
<polygon fill="black" stroke="black" points="178.05,-36.56 185.29,-28.82 174.81,-30.35 178.05,-36.56"/>
</g>
<!-- F4 -->
<g id="node5" class="node">
<title>F4</title>
<ellipse fill="none" stroke="black" cx="297" cy="-64" rx="27" ry="18"/>
<text text-anchor="middle" x="297" y="-60.3" font-family="Times,serif" font-size="14.00">F4</text>
</g>
<!-- F2&#45;&gt;F4 -->
<g id="edge5" class="edge">
<title>F2&#45;&gt;F4</title>
<path fill="none" stroke="black" d="M144.26,-64C174.85,-64 225.55,-64 259.84,-64"/>
<polygon fill="black" stroke="black" points="259.92,-67.5 269.92,-64 259.92,-60.5 259.92,-67.5"/>
</g>
<!-- F1 -->
<g id="node3" class="node">
<title>F1</title>
<ellipse fill="none" stroke="black" cx="27" cy="-18" rx="27" ry="18"/>
<text text-anchor="middle" x="27" y="-14.3" font-family="Times,serif" font-size="14.00">F1</text>
</g>
<!-- F1&#45;&gt;F2 -->
<g id="edge2" class="edge">
<title>F1&#45;&gt;F2</title>
<path fill="none" stroke="black" d="M48.85,-28.9C60.03,-34.74 74,-42.04 86.29,-48.47"/>
<polygon fill="black" stroke="black" points="84.81,-51.65 95.29,-53.18 88.05,-45.44 84.81,-51.65"/>
</g>
<!-- F1&#45;&gt;F3 -->
<g id="edge3" class="edge">
<title>F1&#45;&gt;F3</title>
<path fill="none" stroke="black" d="M54.26,-18C84.85,-18 135.55,-18 169.84,-18"/>
<polygon fill="black" stroke="black" points="169.92,-21.5 179.92,-18 169.92,-14.5 169.92,-21.5"/>
</g>
<!-- F3&#45;&gt;F4 -->
<g id="edge6" class="edge">
<title>F3&#45;&gt;F4</title>
<path fill="none" stroke="black" d="M228.85,-28.9C240.03,-34.74 254,-42.04 266.29,-48.47"/>
<polygon fill="black" stroke="black" points="264.81,-51.65 275.29,-53.18 268.05,-45.44 264.81,-51.65"/>
</g>
<!-- F5 -->
<g id="node6" class="node">
<title>F5</title>
<ellipse fill="none" stroke="black" cx="387" cy="-18" rx="27" ry="18"/>
<text text-anchor="middle" x="387" y="-14.3" font-family="Times,serif" font-size="14.00">F5</text>
</g>
<!-- F3&#45;&gt;F5 -->
<g id="edge7" class="edge">
<title>F3&#45;&gt;F5</title>
<path fill="none" stroke="black" d="M234.26,-18C264.85,-18 315.55,-18 349.84,-18"/>
<polygon fill="black" stroke="black" points="349.92,-21.5 359.92,-18 349.92,-14.5 349.92,-21.5"/>
</g>
<!-- F4&#45;&gt;F5 -->
<g id="edge8" class="edge">
<title>F4&#45;&gt;F5</title>
<path fill="none" stroke="black" d="M318.85,-53.1C330.03,-47.26 344,-39.96 356.29,-33.53"/>
<polygon fill="black" stroke="black" points="358.05,-36.56 365.29,-28.82 354.81,-30.35 358.05,-36.56"/>
</g>
<!-- F6 -->
<g id="node7" class="node">
<title>F6</title>
<ellipse fill="none" stroke="black" cx="477" cy="-64" rx="27" ry="18"/>
<text text-anchor="middle" x="477" y="-60.3" font-family="Times,serif" font-size="14.00">F6</text>
</g>
<!-- F4&#45;&gt;F6 -->
<g id="edge9" class="edge">
<title>F4&#45;&gt;F6</title>
<path fill="none" stroke="black" d="M324.26,-64C354.85,-64 405.55,-64 439.84,-64"/>
<polygon fill="black" stroke="black" points="439.92,-67.5 449.92,-64 439.92,-60.5 439.92,-67.5"/>
</g>
<!-- F5&#45;&gt;F6 -->
<g id="edge10" class="edge">
<title>F5&#45;&gt;F6</title>
<path fill="none" stroke="black" d="M408.85,-28.9C420.03,-34.74 434,-42.04 446.29,-48.47"/>
<polygon fill="black" stroke="black" points="444.81,-51.65 455.29,-53.18 448.05,-45.44 444.81,-51.65"/>
</g>
<!-- F7 -->
<g id="node8" class="node">
<title>F7</title>
<ellipse fill="none" stroke="black" cx="567" cy="-18" rx="27" ry="18"/>
<text text-anchor="middle" x="567" y="-14.3" font-family="Times,serif" font-size="14.00">F7</text>
</g>
<!-- F5&#45;&gt;F7 -->
<g id="edge11" class="edge">
<title>F5&#45;&gt;F7</title>
<path fill="none" stroke="black" d="M414.26,-18C444.85,-18 495.55,-18 529.84,-18"/>
<polygon fill="black" stroke="black" points="529.92,-21.5 539.92,-18 529.92,-14.5 529.92,-21.5"/>
</g>
<!-- F6&#45;&gt;F7 -->
<g id="edge12" class="edge">
<title>F6&#45;&gt;F7</title>
<path fill="none" stroke="black" d="M498.85,-53.1C510.03,-47.26 524,-39.96 536.29,-33.53"/>
<polygon fill="black" stroke="black" points="538.05,-36.56 545.29,-28.82 534.81,-30.35 538.05,-36.56"/>
</g>
<!-- F8 -->
<g id="node9" class="node">
<title>F8</title>
<ellipse fill="none" stroke="black" cx="657" cy="-64" rx="27" ry="18"/>
<text text-anchor="middle" x="657" y="-60.3" font-family="Times,serif" font-size="14.00">F8</text>
</g>
<!-- F6&#45;&gt;F8 -->
<g id="edge13" class="edge">
<title>F6&#45;&gt;F8</title>
<path fill="none" stroke="black" d="M504.26,-64C534.85,-64 585.55,-64 619.84,-64"/>
<polygon fill="black" stroke="black" points="619.92,-67.5 629.92,-64 619.92,-60.5 619.92,-67.5"/>
</g>
<!-- F7&#45;&gt;F8 -->
<g id="edge14" class="edge">
<title>F7&#45;&gt;F8</title>
<path fill="none" stroke="black" d="M588.85,-28.9C600.03,-34.74 614,-42.04 626.29,-48.47"/>
<polygon fill="black" stroke="black" points="624.81,-51.65 635.29,-53.18 628.05,-45.44 624.81,-51.65"/>
</g>
<!-- F9 -->
<g id="node10" class="node">
<title>F9</title>
<ellipse fill="none" stroke="black" cx="747" cy="-18" rx="27" ry="18"/>
<text text-anchor="middle" x="747" y="-14.3" font-family="Times,serif" font-size="14.00">F9</text>
</g>
<!-- F7&#45;&gt;F9 -->
<g id="edge15" class="edge">
<title>F7&#45;&gt;F9</title>
<path fill="none" stroke="black" d="M594.26,-18C624.85,-18 675.55,-18 709.84,-18"/>
<polygon fill="black" stroke="black" points="709.92,-21.5 719.92,-18 709.92,-14.5 709.92,-21.5"/>
</g>
<!-- F8&#45;&gt;F9 -->
<g id="edge16" class="edge">
<title>F8&#45;&gt;F9</title>
<path fill="none" stroke="black" d="M678.85,-53.1C690.03,-47.26 704,-39.96 716.29,-33.53"/>
<polygon fill="black" stroke="black" points="718.05,-36.56 725.29,-28.82 714.81,-30.35 718.05,-36.56"/>
</g>
<!-- F10 -->
<g id="node11" class="node">
<title>F10</title>
<ellipse fill="none" stroke="black" cx="838.6" cy="-41" rx="28.7" ry="18"/>
<text text-anchor="middle" x="838.6" y="-37.3" font-family="Times,serif" font-size="14.00">F10</text>
</g>
<!-- F8&#45;&gt;F10 -->
<g id="edge17" class="edge">
<title>F8&#45;&gt;F10</title>
<path fill="none" stroke="black" d="M683.73,-60.7C714.23,-56.8 765.31,-50.26 800.18,-45.79"/>
<polygon fill="black" stroke="black" points="800.97,-49.22 810.44,-44.48 800.08,-42.28 800.97,-49.22"/>
</g>
<!-- F9&#45;&gt;F10 -->
<g id="edge18" class="edge">
<title>F9&#45;&gt;F10</title>
<path fill="none" stroke="black" d="M772.48,-24.28C781.56,-26.61 792.04,-29.31 801.91,-31.84"/>
<polygon fill="black" stroke="black" points="801.34,-35.31 811.89,-34.4 803.08,-28.52 801.34,-35.31"/>
</g>
</g>
</svg>
