<?xml version="1.0" encoding="UTF-8" standalone="no"?>
<!DOCTYPE svg PUBLIC "-//W3C//DTD SVG 1.1//EN"
 "http://www.w3.org/Graphics/SVG/1.1/DTD/svg11.dtd">
<!-- Generated by graphviz version 13.0.1 (20250615.1724)
 -->
<!-- Title: event&#45;processor Pages: 1 -->
<svg width="819pt" height="227pt"
 viewBox="0.00 0.00 819.00 227.00" xmlns="http://www.w3.org/2000/svg" xmlns:xlink="http://www.w3.org/1999/xlink">
<g id="graph0" class="graph" transform="scale(1 1) rotate(0) translate(4 223)">
<title>event&#45;processor</title>
<polygon fill="white" stroke="none" points="-4,4 -4,-223 815.29,-223 815.29,4 -4,4"/>
<g id="clust1" class="cluster">
<title>cluster_critical_path</title>
<polygon fill="#f5f5f5" stroke="black" stroke-dasharray="5,2" points="449.29,-112 449.29,-211 803.29,-211 803.29,-112 449.29,-112"/>
<text xml:space="preserve" text-anchor="middle" x="626.29" y="-193.7" font-family="Times,serif" font-size="14.00">critical_path</text>
</g>
<g id="clust2" class="cluster">
<title>cluster_warning_path</title>
<polygon fill="#f5f5f5" stroke="black" stroke-dasharray="5,2" points="439.96,-60 439.96,-104 530.21,-104 530.21,-60 439.96,-60"/>
<text xml:space="preserve" text-anchor="middle" x="485.09" y="-86.7" font-family="Times,serif" font-size="14.00">warning_path</text>
</g>
<g id="clust3" class="cluster">
<title>cluster_info_path</title>
<polygon fill="#f5f5f5" stroke="black" stroke-dasharray="5,2" points="451.21,-8 451.21,-52 518.96,-52 518.96,-8 451.21,-8"/>
<text xml:space="preserve" text-anchor="middle" x="485.09" y="-34.7" font-family="Times,serif" font-size="14.00">info_path</text>
</g>
<!-- ingest -->
<g id="node1" class="node">
<title>ingest</title>
<ellipse fill="none" stroke="black" cx="32.93" cy="-70" rx="32.93" ry="18"/>
<text xml:space="preserve" text-anchor="middle" x="32.93" y="-64.95" font-family="Times,serif" font-size="14.00">ingest</text>
</g>
<!-- classify -->
<g id="node2" class="node">
<title>classify</title>
<ellipse fill="none" stroke="black" cx="141.92" cy="-70" rx="39.07" ry="18"/>
<text xml:space="preserve" text-anchor="middle" x="141.92" y="-64.95" font-family="Times,serif" font-size="14.00">classify</text>
</g>
<!-- ingest&#45;&gt;classify -->
<g id="edge1" class="edge">
<title>ingest&#45;&gt;classify</title>
<path fill="none" stroke="black" d="M66.32,-70C74.18,-70 82.77,-70 91.24,-70"/>
<polygon fill="black" stroke="black" points="91.1,-73.5 101.1,-70 91.1,-66.5 91.1,-73.5"/>
</g>
<!-- severity_check -->
<g id="node3" class="node">
<title>severity_check</title>
<polygon fill="none" stroke="green" points="311.6,-88 217.99,-70 311.6,-52 405.21,-70 311.6,-88"/>
<text xml:space="preserve" text-anchor="middle" x="311.6" y="-64.95" font-family="Times,serif" font-size="14.00">severity_check</text>
</g>
<!-- classify&#45;&gt;severity_check -->
<g id="edge2" class="edge">
<title>classify&#45;&gt;severity_check</title>
<path fill="none" stroke="black" d="M181.39,-70C188.42,-70 196.06,-70 204,-70"/>
<polygon fill="black" stroke="black" points="203.87,-73.5 213.87,-70 203.87,-66.5 203.87,-73.5"/>
</g>
<!-- critical_path -->
<g id="node4" class="node">
<title>critical_path</title>
<ellipse fill="black" stroke="black" cx="484.59" cy="-122" rx="1.8" ry="1.8"/>
</g>
<!-- severity_check&#45;&gt;critical_path -->
<g id="edge3" class="edge">
<title>severity_check&#45;&gt;critical_path</title>
<path fill="none" stroke="black" stroke-dasharray="5,2" d="M349.28,-81.16C387.96,-92.92 446.69,-110.78 471.67,-118.38"/>
<polygon fill="black" stroke="black" points="470.35,-121.63 480.93,-121.19 472.39,-114.93 470.35,-121.63"/>
<text xml:space="preserve" text-anchor="middle" x="426.59" y="-108.38" font-family="Times,serif" font-size="14.00">0</text>
</g>
<!-- warning_path -->
<g id="node5" class="node">
<title>warning_path</title>
<ellipse fill="black" stroke="black" cx="484.59" cy="-70" rx="1.8" ry="1.8"/>
</g>
<!-- severity_check&#45;&gt;warning_path -->
<g id="edge4" class="edge">
<title>severity_check&#45;&gt;warning_path</title>
<path fill="none" stroke="black" stroke-dasharray="5,2" d="M407.59,-70C432.79,-70 456.87,-70 470.94,-70"/>
<polygon fill="black" stroke="black" points="470.8,-73.5 480.8,-70 470.8,-66.5 470.8,-73.5"/>
<text xml:space="preserve" text-anchor="middle" x="426.59" y="-73.2" font-family="Times,serif" font-size="14.00">1</text>
</g>
<!-- info_path -->
<g id="node6" class="node">
<title>info_path</title>
<ellipse fill="black" stroke="black" cx="484.59" cy="-18" rx="1.8" ry="1.8"/>
</g>
<!-- severity_check&#45;&gt;info_path -->
<g id="edge5" class="edge">
<title>severity_check&#45;&gt;info_path</title>
<path fill="none" stroke="black" stroke-dasharray="5,2" d="M349.28,-58.84C387.96,-47.08 446.69,-29.22 471.67,-21.62"/>
<polygon fill="black" stroke="black" points="472.39,-25.07 480.93,-18.81 470.35,-18.37 472.39,-25.07"/>
<text xml:space="preserve" text-anchor="middle" x="426.59" y="-39.5" font-family="Times,serif" font-size="14.00">2</text>
</g>
<!-- alert -->
<g id="node7" class="node">
<title>alert</title>
<ellipse fill="none" stroke="black" cx="484.59" cy="-160" rx="27.3" ry="18"/>
<text xml:space="preserve" text-anchor="middle" x="484.59" y="-154.95" font-family="Times,serif" font-size="14.00">alert</text>
</g>
<!-- escalate -->
<g id="node8" class="node">
<title>escalate</title>
<ellipse fill="none" stroke="black" cx="607.3" cy="-160" rx="40.09" ry="18"/>
<text xml:space="preserve" text-anchor="middle" x="607.3" y="-154.95" font-family="Times,serif" font-size="14.00">escalate</text>
</g>
<!-- alert&#45;&gt;escalate -->
<g id="edge6" class="edge">
<title>alert&#45;&gt;escalate</title>
<path fill="none" stroke="black" d="M512.38,-160C525.11,-160 540.76,-160 555.61,-160"/>
<polygon fill="black" stroke="black" points="555.24,-163.5 565.24,-160 555.24,-156.5 555.24,-163.5"/>
</g>
<!-- page_oncall -->
<g id="node9" class="node">
<title>page_oncall</title>
<ellipse fill="none" stroke="black" cx="739.84" cy="-160" rx="55.45" ry="18"/>
<text xml:space="preserve" text-anchor="middle" x="739.84" y="-154.95" font-family="Times,serif" font-size="14.00">page_oncall</text>
</g>
<!-- escalate&#45;&gt;page_oncall -->
<g id="edge7" class="edge">
<title>escalate&#45;&gt;page_oncall</title>
<path fill="none" stroke="black" d="M647.82,-160C655.67,-160 664.1,-160 672.55,-160"/>
<polygon fill="black" stroke="black" points="672.53,-163.5 682.53,-160 672.53,-156.5 672.53,-163.5"/>
</g>
</g>
</svg>
