<?xml version="1.0" encoding="UTF-8" standalone="no"?>
<!DOCTYPE svg PUBLIC "-//W3C//DTD SVG 1.1//EN"
 "http://www.w3.org/Graphics/SVG/1.1/DTD/svg11.dtd">
<!-- Generated by graphviz version 2.40.1 (20161225.0304)
 -->
<!-- Title: G Pages: 1 -->
<svg width="607pt" height="338pt"
 viewBox="0.00 0.00 607.31 338.00" xmlns="http://www.w3.org/2000/svg" xmlns:xlink="http://www.w3.org/1999/xlink">
<g id="graph0" class="graph" transform="scale(1 1) rotate(0) translate(4 334)">
<title>G</title>
<polygon fill="#ffffff" stroke="transparent" points="-4,4 -4,-334 603.3116,-334 603.3116,4 -4,4"/>
<g id="clust1" class="cluster">
<title>cluster_sub2</title>
<polygon fill="#f5f5f5" stroke="#000000" points="392.3116,-169 392.3116,-322 591.3116,-322 591.3116,-169 392.3116,-169"/>
<text text-anchor="middle" x="491.8116" y="-305.4" font-family="Times,serif" font-size="14.00" fill="#000000">sub2</text>
</g>
<g id="clust2" class="cluster">
<title>cluster_sub1</title>
<polygon fill="#f5f5f5" stroke="#000000" points="392.3116,-8 392.3116,-161 591.3116,-161 591.3116,-8 392.3116,-8"/>
<text text-anchor="middle" x="491.8116" y="-144.4" font-family="Times,serif" font-size="14.00" fill="#000000">sub1</text>
</g>
<!-- A3 -->
<g id="node1" class="node">
<title>A3</title>
<ellipse fill="none" stroke="#000000" cx="427.3116" cy="-271" rx="27" ry="18"/>
<text text-anchor="middle" x="427.3116" y="-266.8" font-family="Times,serif" font-size="14.00" fill="#000000">A3</text>
</g>
<!-- B3 -->
<g id="node2" class="node">
<title>B3</title>
<ellipse fill="none" stroke="#000000" cx="556.3116" cy="-244" rx="27" ry="18"/>
<text text-anchor="middle" x="556.3116" y="-239.8" font-family="Times,serif" font-size="14.00" fill="#000000">B3</text>
</g>
<!-- A3&#45;&gt;B3 -->
<g id="edge1" class="edge">
<title>A3&#45;&gt;B3</title>
<path fill="none" stroke="#000000" d="M453.1066,-265.601C472.3154,-261.5806 498.7918,-256.039 520.118,-251.5754"/>
<polygon fill="#000000" stroke="#000000" points="521.0482,-254.9566 530.1191,-249.4822 519.6141,-248.1051 521.0482,-254.9566"/>
</g>
<!-- C3 -->
<g id="node3" class="node">
<title>C3</title>
<ellipse fill="none" stroke="#000000" cx="427.3116" cy="-217" rx="27" ry="18"/>
<text text-anchor="middle" x="427.3116" y="-212.8" font-family="Times,serif" font-size="14.00" fill="#000000">C3</text>
</g>
<!-- C3&#45;&gt;B3 -->
<g id="edge2" class="edge">
<title>C3&#45;&gt;B3</title>
<path fill="none" stroke="#000000" d="M453.1066,-222.399C472.3154,-226.4194 498.7918,-231.961 520.118,-236.4246"/>
<polygon fill="#000000" stroke="#000000" points="519.6141,-239.8949 530.1191,-238.5178 521.0482,-233.0434 519.6141,-239.8949"/>
</g>
<!-- sub2 -->
<g id="node4" class="node">
<title>sub2</title>
<ellipse fill="#000000" stroke="#000000" cx="427.3116" cy="-179" rx="1.8" ry="1.8"/>
</g>
<!-- A2 -->
<g id="node5" class="node">
<title>A2</title>
<ellipse fill="none" stroke="#000000" cx="427.3116" cy="-110" rx="27" ry="18"/>
<text text-anchor="middle" x="427.3116" y="-105.8" font-family="Times,serif" font-size="14.00" fill="#000000">A2</text>
</g>
<!-- B2 -->
<g id="node6" class="node">
<title>B2</title>
<ellipse fill="none" stroke="#000000" cx="556.3116" cy="-83" rx="27" ry="18"/>
<text text-anchor="middle" x="556.3116" y="-78.8" font-family="Times,serif" font-size="14.00" fill="#000000">B2</text>
</g>
<!-- A2&#45;&gt;B2 -->
<g id="edge3" class="edge">
<title>A2&#45;&gt;B2</title>
<path fill="none" stroke="#000000" d="M453.1066,-104.601C472.3154,-100.5806 498.7918,-95.039 520.118,-90.5754"/>
<polygon fill="#000000" stroke="#000000" points="521.0482,-93.9566 530.1191,-88.4822 519.6141,-87.1051 521.0482,-93.9566"/>
</g>
<!-- C2 -->
<g id="node7" class="node">
<title>C2</title>
<ellipse fill="none" stroke="#000000" cx="427.3116" cy="-56" rx="27" ry="18"/>
<text text-anchor="middle" x="427.3116" y="-51.8" font-family="Times,serif" font-size="14.00" fill="#000000">C2</text>
</g>
<!-- C2&#45;&gt;B2 -->
<g id="edge4" class="edge">
<title>C2&#45;&gt;B2</title>
<path fill="none" stroke="#000000" d="M453.1066,-61.399C472.3154,-65.4194 498.7918,-70.961 520.118,-75.4246"/>
<polygon fill="#000000" stroke="#000000" points="519.6141,-78.8949 530.1191,-77.5178 521.0482,-72.0434 519.6141,-78.8949"/>
</g>
<!-- sub1 -->
<g id="node8" class="node">
<title>sub1</title>
<ellipse fill="#000000" stroke="#000000" cx="427.3116" cy="-18" rx="1.8" ry="1.8"/>
</g>
<!-- A -->
<g id="node9" class="node">
<title>A</title>
<ellipse fill="none" stroke="#000000" cx="118" cy="-144" rx="27" ry="18"/>
<text text-anchor="middle" x="118" y="-139.8" font-family="Times,serif" font-size="14.00" fill="#000000">A</text>
</g>
<!-- B -->
<g id="node10" class="node">
<title>B</title>
<ellipse fill="none" stroke="#000000" cx="209" cy="-98" rx="27" ry="18"/>
<text text-anchor="middle" x="209" y="-93.8" font-family="Times,serif" font-size="14.00" fill="#000000">B</text>
</g>
<!-- A&#45;&gt;B -->
<g id="edge5" class="edge">
<title>A&#45;&gt;B</title>
<path fill="none" stroke="#000000" d="M139.5657,-133.0986C151.0415,-127.2977 165.357,-120.0613 178.0032,-113.6687"/>
<polygon fill="#000000" stroke="#000000" points="179.9281,-116.6175 187.2737,-108.9825 176.7701,-110.3703 179.9281,-116.6175"/>
</g>
<!-- cond -->
<g id="node11" class="node">
<title>cond</title>
<polygon fill="none" stroke="#000000" points="315.1558,-116 272.8436,-98 315.1558,-80 357.4679,-98 315.1558,-116"/>
<text text-anchor="middle" x="315.1558" y="-93.8" font-family="Times,serif" font-size="14.00" fill="#000000">cond</text>
</g>
<!-- B&#45;&gt;cond -->
<g id="edge6" class="edge">
<title>B&#45;&gt;cond</title>
<path fill="none" stroke="#000000" d="M236.0623,-98C244.2725,-98 253.5862,-98 262.8676,-98"/>
<polygon fill="#000000" stroke="#000000" points="262.8726,-101.5001 272.8725,-98 262.8725,-94.5001 262.8726,-101.5001"/>
</g>
<!-- cond&#45;&gt;sub2 -->
<g id="edge12" class="edge">
<title>cond&#45;&gt;sub2</title>
<path fill="none" stroke="#000000" d="M327.4773,-111.0685C341.892,-125.7596 367.0197,-149.5704 392.3116,-165 399.5745,-169.4309 408.4866,-172.9718 415.5,-175.3842"/>
<polygon fill="#000000" stroke="#000000" points="414.7182,-178.8069 425.3072,-178.4557 416.8104,-172.1268 414.7182,-178.8069"/>
<text text-anchor="middle" x="378.8116" y="-161.2" font-family="Times,serif" font-size="14.00" fill="#000000">1</text>
</g>
<!-- cond&#45;&gt;sub1 -->
<g id="edge11" class="edge">
<title>cond&#45;&gt;sub1</title>
<path fill="none" stroke="#000000" d="M326.6853,-84.711C340.7433,-69.2749 365.9123,-44.0131 392.3116,-29 399.5093,-24.9067 408.4224,-22.134 415.4526,-20.3963"/>
<polygon fill="#000000" stroke="#000000" points="416.2316,-23.8091 425.2962,-18.3244 414.7897,-16.9592 416.2316,-23.8091"/>
<text text-anchor="middle" x="378.8116" y="-43.2" font-family="Times,serif" font-size="14.00" fill="#000000">0</text>
</g>
<!-- C -->
<g id="node12" class="node">
<title>C</title>
<ellipse fill="none" stroke="#000000" cx="118" cy="-52" rx="27" ry="18"/>
<text text-anchor="middle" x="118" y="-47.8" font-family="Times,serif" font-size="14.00" fill="#000000">C</text>
</g>
<!-- C&#45;&gt;B -->
<g id="edge7" class="edge">
<title>C&#45;&gt;B</title>
<path fill="none" stroke="#000000" d="M139.5657,-62.9014C151.0415,-68.7023 165.357,-75.9387 178.0032,-82.3313"/>
<polygon fill="#000000" stroke="#000000" points="176.7701,-85.6297 187.2737,-87.0175 179.9281,-79.3825 176.7701,-85.6297"/>
</g>
<!-- A1 -->
<g id="node13" class="node">
<title>A1</title>
<ellipse fill="none" stroke="#000000" cx="27" cy="-98" rx="27" ry="18"/>
<text text-anchor="middle" x="27" y="-93.8" font-family="Times,serif" font-size="14.00" fill="#000000">A1</text>
</g>
<!-- A1&#45;&gt;B -->
<g id="edge8" class="edge">
<title>A1&#45;&gt;B</title>
<path fill="none" stroke="#000000" d="M54.2472,-98C85.4312,-98 136.6875,-98 171.5957,-98"/>
<polygon fill="#000000" stroke="#000000" points="171.8642,-101.5001 181.8641,-98 171.8641,-94.5001 171.8642,-101.5001"/>
</g>
<!-- A1&#45;&gt;C -->
<g id="edge9" class="edge">
<title>A1&#45;&gt;C</title>
<path fill="none" stroke="#000000" d="M48.5657,-87.0986C60.0415,-81.2977 74.357,-74.0613 87.0032,-67.6687"/>
<polygon fill="#000000" stroke="#000000" points="88.9281,-70.6175 96.2737,-62.9825 85.7701,-64.3703 88.9281,-70.6175"/>
</g>
<!-- B1 -->
<g id="node14" class="node">
<title>B1</title>
<ellipse fill="none" stroke="#000000" cx="27" cy="-44" rx="27" ry="18"/>
<text text-anchor="middle" x="27" y="-39.8" font-family="Times,serif" font-size="14.00" fill="#000000">B1</text>
</g>
<!-- B1&#45;&gt;C -->
<g id="edge10" class="edge">
<title>B1&#45;&gt;C</title>
<path fill="none" stroke="#000000" d="M53.8108,-46.357C62.3433,-47.1071 71.9372,-47.9505 81.0555,-48.7521"/>
<polygon fill="#000000" stroke="#000000" points="80.7982,-52.2429 91.0664,-49.6322 81.4113,-45.2698 80.7982,-52.2429"/>
</g>
<!-- C1 -->
<g id="node15" class="node">
<title>C1</title>
<ellipse fill="none" stroke="#000000" cx="27" cy="-152" rx="27" ry="18"/>
<text text-anchor="middle" x="27" y="-147.8" font-family="Times,serif" font-size="14.00" fill="#000000">C1</text>
</g>
</g>
</svg>
