<?xml version="1.0" encoding="UTF-8" standalone="no"?>
<!DOCTYPE svg PUBLIC "-//W3C//DTD SVG 1.1//EN"
 "http://www.w3.org/Graphics/SVG/1.1/DTD/svg11.dtd">
<!-- Generated by graphviz version 2.40.1 (20161225.0304)
 -->
<!-- Title: G Pages: 1 -->
<svg width="542pt" height="229pt"
 viewBox="0.00 0.00 542.00 228.80" xmlns="http://www.w3.org/2000/svg" xmlns:xlink="http://www.w3.org/1999/xlink">
<g id="graph0" class="graph" transform="scale(1 1) rotate(0) translate(4 224.8)">
<title>G</title>
<polygon fill="#ffffff" stroke="transparent" points="-4,4 -4,-224.8 538,-224.8 538,4 -4,4"/>
<g id="clust1" class="cluster">
<title>cluster_sub2</title>
<polygon fill="#f5f5f5" stroke="#000000" points="8,-8.2 8,-212.8 150,-212.8 150,-8.2 8,-8.2"/>
<text text-anchor="middle" x="79" y="-196.2" font-family="Times,serif" font-size="14.00" fill="#000000">sub2</text>
</g>
<g id="clust2" class="cluster">
<title>cluster_sub1</title>
<polygon fill="#f5f5f5" stroke="#000000" points="158,-64 158,-212.8 300,-212.8 300,-64 158,-64"/>
<text text-anchor="middle" x="229" y="-196.2" font-family="Times,serif" font-size="14.00" fill="#000000">sub1</text>
</g>
<!-- A3 -->
<g id="node1" class="node">
<title>A3</title>
<ellipse fill="none" stroke="#000000" cx="115" cy="-162" rx="27" ry="18"/>
<text text-anchor="middle" x="115" y="-157.8" font-family="Times,serif" font-size="14.00" fill="#000000">A3</text>
</g>
<!-- B3 -->
<g id="node2" class="node">
<title>B3</title>
<ellipse fill="none" stroke="#000000" cx="79" cy="-90" rx="27" ry="18"/>
<text text-anchor="middle" x="79" y="-85.8" font-family="Times,serif" font-size="14.00" fill="#000000">B3</text>
</g>
<!-- A3&#45;&gt;B3 -->
<g id="edge1" class="edge">
<title>A3&#45;&gt;B3</title>
<path fill="none" stroke="#000000" d="M106.2854,-144.5708C102.0403,-136.0807 96.8464,-125.6929 92.1337,-116.2674"/>
<polygon fill="#000000" stroke="#000000" points="95.237,-114.6477 87.6343,-107.2687 88.976,-117.7782 95.237,-114.6477"/>
</g>
<!-- C3 -->
<g id="node3" class="node">
<title>C3</title>
<ellipse fill="none" stroke="#000000" cx="43" cy="-162" rx="27" ry="18"/>
<text text-anchor="middle" x="43" y="-157.8" font-family="Times,serif" font-size="14.00" fill="#000000">C3</text>
</g>
<!-- C3&#45;&gt;B3 -->
<g id="edge2" class="edge">
<title>C3&#45;&gt;B3</title>
<path fill="none" stroke="#000000" d="M51.7146,-144.5708C55.9597,-136.0807 61.1536,-125.6929 65.8663,-116.2674"/>
<polygon fill="#000000" stroke="#000000" points="69.024,-117.7782 70.3657,-107.2687 62.763,-114.6477 69.024,-117.7782"/>
</g>
<!-- sub2 -->
<!-- A2 -->
<g id="node5" class="node">
<title>A2</title>
<ellipse fill="none" stroke="#000000" cx="265" cy="-162" rx="27" ry="18"/>
<text text-anchor="middle" x="265" y="-157.8" font-family="Times,serif" font-size="14.00" fill="#000000">A2</text>
</g>
<!-- B2 -->
<g id="node6" class="node">
<title>B2</title>
<ellipse fill="none" stroke="#000000" cx="251" cy="-90" rx="27" ry="18"/>
<text text-anchor="middle" x="251" y="-85.8" font-family="Times,serif" font-size="14.00" fill="#000000">B2</text>
</g>
<!-- A2&#45;&gt;B2 -->
<g id="edge3" class="edge">
<title>A2&#45;&gt;B2</title>
<path fill="none" stroke="#000000" d="M261.4672,-143.8314C259.9302,-135.9266 258.0947,-126.4872 256.3932,-117.7365"/>
<polygon fill="#000000" stroke="#000000" points="259.8276,-117.0615 254.4832,-107.9134 252.9563,-118.3976 259.8276,-117.0615"/>
</g>
<!-- C2 -->
<g id="node7" class="node">
<title>C2</title>
<ellipse fill="none" stroke="#000000" cx="193" cy="-162" rx="27" ry="18"/>
<text text-anchor="middle" x="193" y="-157.8" font-family="Times,serif" font-size="14.00" fill="#000000">C2</text>
</g>
<!-- C2&#45;&gt;B2 -->
<g id="edge4" class="edge">
<title>C2&#45;&gt;B2</title>
<path fill="none" stroke="#000000" d="M205.8721,-146.0209C213.4562,-136.6061 223.1982,-124.5126 231.6884,-113.973"/>
<polygon fill="#000000" stroke="#000000" points="234.6162,-115.9177 238.1639,-105.9345 229.1649,-111.5264 234.6162,-115.9177"/>
</g>
<!-- sub1 -->
<!-- sub1&#45;&gt;sub2 -->
<g id="edge11" class="edge">
<title>sub1&#45;&gt;sub2</title>
<path fill="none" stroke="#000000" d="M190.9139,-88.4962C185.3626,-80.8098 159.9272,-45.5915 147.2397,-28.0242"/>
<polygon fill="#000000" stroke="#000000" points="149.7724,-25.5531 141.0801,-19.4955 144.0977,-29.6516 149.7724,-25.5531"/>
</g>
<!-- B -->
<g id="node10" class="node">
<title>B</title>
<ellipse fill="none" stroke="#000000" cx="372" cy="-18" rx="27" ry="18"/>
<text text-anchor="middle" x="372" y="-13.8" font-family="Times,serif" font-size="14.00" fill="#000000">B</text>
</g>
<!-- sub1&#45;&gt;B -->
<g id="edge10" class="edge">
<title>sub1&#45;&gt;B</title>
<path fill="none" stroke="#000000" d="M193.0065,-88.3093C195.8482,-83.684 204.4181,-70.7199 215,-64 252.1045,-40.4374 301.7207,-28.5526 335.1631,-22.8375"/>
<polygon fill="#000000" stroke="#000000" points="336.0975,-26.2324 345.4164,-21.1917 334.988,-19.3209 336.0975,-26.2324"/>
</g>
<!-- A -->
<g id="node9" class="node">
<title>A</title>
<ellipse fill="none" stroke="#000000" cx="408" cy="-90" rx="27" ry="18"/>
<text text-anchor="middle" x="408" y="-85.8" font-family="Times,serif" font-size="14.00" fill="#000000">A</text>
</g>
<!-- A&#45;&gt;B -->
<g id="edge5" class="edge">
<title>A&#45;&gt;B</title>
<path fill="none" stroke="#000000" d="M399.2854,-72.5708C395.0403,-64.0807 389.8464,-53.6929 385.1337,-44.2674"/>
<polygon fill="#000000" stroke="#000000" points="388.237,-42.6477 380.6343,-35.2687 381.976,-45.7782 388.237,-42.6477"/>
</g>
<!-- C -->
<g id="node11" class="node">
<title>C</title>
<ellipse fill="none" stroke="#000000" cx="336" cy="-90" rx="27" ry="18"/>
<text text-anchor="middle" x="336" y="-85.8" font-family="Times,serif" font-size="14.00" fill="#000000">C</text>
</g>
<!-- C&#45;&gt;B -->
<g id="edge6" class="edge">
<title>C&#45;&gt;B</title>
<path fill="none" stroke="#000000" d="M344.7146,-72.5708C348.9597,-64.0807 354.1536,-53.6929 358.8663,-44.2674"/>
<polygon fill="#000000" stroke="#000000" points="362.024,-45.7782 363.3657,-35.2687 355.763,-42.6477 362.024,-45.7782"/>
</g>
<!-- A1 -->
<g id="node12" class="node">
<title>A1</title>
<ellipse fill="none" stroke="#000000" cx="435" cy="-162" rx="27" ry="18"/>
<text text-anchor="middle" x="435" y="-157.8" font-family="Times,serif" font-size="14.00" fill="#000000">A1</text>
</g>
<!-- A1&#45;&gt;B -->
<g id="edge7" class="edge">
<title>A1&#45;&gt;B</title>
<path fill="none" stroke="#000000" d="M442.2182,-144.5121C449.5063,-123.9214 457.8719,-89.324 444,-64 435.699,-48.8461 420.0453,-37.9589 405.4487,-30.593"/>
<polygon fill="#000000" stroke="#000000" points="406.6413,-27.2879 396.0972,-26.2516 403.6937,-33.6371 406.6413,-27.2879"/>
</g>
<!-- A1&#45;&gt;C -->
<g id="edge8" class="edge">
<title>A1&#45;&gt;C</title>
<path fill="none" stroke="#000000" d="M416.3789,-148.4574C401.3065,-137.4956 379.8746,-121.9088 362.9313,-109.5864"/>
<polygon fill="#000000" stroke="#000000" points="364.6836,-106.5331 354.5376,-103.4819 360.5664,-112.1943 364.6836,-106.5331"/>
</g>
<!-- B1 -->
<g id="node13" class="node">
<title>B1</title>
<ellipse fill="none" stroke="#000000" cx="337" cy="-162" rx="27" ry="18"/>
<text text-anchor="middle" x="337" y="-157.8" font-family="Times,serif" font-size="14.00" fill="#000000">B1</text>
</g>
<!-- B1&#45;&gt;C -->
<g id="edge9" class="edge">
<title>B1&#45;&gt;C</title>
<path fill="none" stroke="#000000" d="M336.7477,-143.8314C336.6407,-136.131 336.5135,-126.9743 336.3947,-118.4166"/>
<polygon fill="#000000" stroke="#000000" points="339.8944,-118.3637 336.2557,-108.4133 332.8951,-118.4609 339.8944,-118.3637"/>
</g>
<!-- C1 -->
<g id="node14" class="node">
<title>C1</title>
<ellipse fill="none" stroke="#000000" cx="507" cy="-162" rx="27" ry="18"/>
<text text-anchor="middle" x="507" y="-157.8" font-family="Times,serif" font-size="14.00" fill="#000000">C1</text>
</g>
</g>
</svg>