<?xml version="1.0" encoding="UTF-8" standalone="no"?><!DOCTYPE svg PUBLIC "-//W3C//DTD SVG 1.1//EN" "http://www.w3.org/Graphics/SVG/1.1/DTD/svg11.dtd"><!-- Generated by graphviz version 2.40.1 (20161225.0304)
 --><!-- Title: G Pages: 1 --><svg xmlns="http://www.w3.org/2000/svg" xmlns:xlink="http://www.w3.org/1999/xlink" width="516pt" height="276pt" viewBox="0.00 0.00 516.00 276.00">
<g id="graph0" class="graph" transform="scale(1 1) rotate(0) translate(4 272)">
<title>G</title>
<polygon fill="#ffffff" stroke="transparent" points="-4,4 -4,-272 512,-272 512,4 -4,4"/>
<g id="clust1" class="cluster">
<title>cluster_sub2</title>
<polygon fill="none" stroke="#000000" points="158,-8 158,-132 300,-132 300,-8 158,-8"/>
</g>
<g id="clust2" class="cluster">
<title>cluster_sub1</title>
<polygon fill="none" stroke="#000000" points="8,-80 8,-204 150,-204 150,-80 8,-80"/>
</g>
<!-- A3 -->
<g id="node1" class="node">
<title>A3</title>
<ellipse fill="none" stroke="#000000" cx="265" cy="-106" rx="27" ry="18"/>
<text text-anchor="middle" x="265" y="-101.8" font-family="Times,serif" font-size="14.00" fill="#000000">A3</text>
</g>
<!-- B3 -->
<g id="node2" class="node">
<title>B3</title>
<ellipse fill="none" stroke="#000000" cx="229" cy="-34" rx="27" ry="18"/>
<text text-anchor="middle" x="229" y="-29.8" font-family="Times,serif" font-size="14.00" fill="#000000">B3</text>
</g>
<!-- A3&#45;&gt;B3 -->
<g id="edge1" class="edge">
<title>A3-&gt;B3</title>
<path fill="none" stroke="#000000" d="M256.2854,-88.5708C252.0403,-80.0807 246.8464,-69.6929 242.1337,-60.2674"/>
<polygon fill="#000000" stroke="#000000" points="245.237,-58.6477 237.6343,-51.2687 238.976,-61.7782 245.237,-58.6477"/>
</g>
<!-- C3 -->
<g id="node3" class="node">
<title>C3</title>
<ellipse fill="none" stroke="#000000" cx="193" cy="-106" rx="27" ry="18"/>
<text text-anchor="middle" x="193" y="-101.8" font-family="Times,serif" font-size="14.00" fill="#000000">C3</text>
</g>
<!-- C3&#45;&gt;B3 -->
<g id="edge2" class="edge">
<title>C3-&gt;B3</title>
<path fill="none" stroke="#000000" d="M201.7146,-88.5708C205.9597,-80.0807 211.1536,-69.6929 215.8663,-60.2674"/>
<polygon fill="#000000" stroke="#000000" points="219.024,-61.7782 220.3657,-51.2687 212.763,-58.6477 219.024,-61.7782"/>
</g>
<!-- A2 -->
<g id="node4" class="node">
<title>A2</title>
<ellipse fill="none" stroke="#000000" cx="115" cy="-178" rx="27" ry="18"/>
<text text-anchor="middle" x="115" y="-173.8" font-family="Times,serif" font-size="14.00" fill="#000000">A2</text>
</g>
<!-- A2&#45;&gt;A3 -->
<g id="edge11" class="edge">
<title>A2-&gt;A3</title>
<path fill="none" stroke="#000000" d="M139.35,-170.1038C162.9742,-162.0018 199.4805,-148.2997 229,-132 232.4694,-130.0843 235.9971,-127.8895 239.4198,-125.6051"/>
<polygon fill="#000000" stroke="#000000" points="241.4448,-128.4599 247.6183,-119.8495 237.4228,-122.7307 241.4448,-128.4599"/>
</g>
<!-- B2 -->
<g id="node5" class="node">
<title>B2</title>
<ellipse fill="none" stroke="#000000" cx="79" cy="-106" rx="27" ry="18"/>
<text text-anchor="middle" x="79" y="-101.8" font-family="Times,serif" font-size="14.00" fill="#000000">B2</text>
</g>
<!-- A2&#45;&gt;B2 -->
<g id="edge3" class="edge">
<title>A2-&gt;B2</title>
<path fill="none" stroke="#000000" d="M106.2854,-160.5708C102.0403,-152.0807 96.8464,-141.6929 92.1337,-132.2674"/>
<polygon fill="#000000" stroke="#000000" points="95.237,-130.6477 87.6343,-123.2687 88.976,-133.7782 95.237,-130.6477"/>
</g>
<!-- B -->
<g id="node8" class="node">
<title>B</title>
<ellipse fill="none" stroke="#000000" cx="337" cy="-106" rx="27" ry="18"/>
<text text-anchor="middle" x="337" y="-101.8" font-family="Times,serif" font-size="14.00" fill="#000000">B</text>
</g>
<!-- A2&#45;&gt;B -->
<g id="edge10" class="edge">
<title>A2-&gt;B</title>
<path fill="none" stroke="#000000" d="M141.8928,-175.1185C179.6909,-170.2718 249.9523,-158.31 304,-132 307.0167,-130.5315 310.0147,-128.7513 312.9034,-126.8188"/>
<polygon fill="#000000" stroke="#000000" points="315.1888,-129.4819 321.1509,-120.7237 311.0285,-123.8523 315.1888,-129.4819"/>
</g>
<!-- C2 -->
<g id="node6" class="node">
<title>C2</title>
<ellipse fill="none" stroke="#000000" cx="43" cy="-178" rx="27" ry="18"/>
<text text-anchor="middle" x="43" y="-173.8" font-family="Times,serif" font-size="14.00" fill="#000000">C2</text>
</g>
<!-- C2&#45;&gt;B2 -->
<g id="edge4" class="edge">
<title>C2-&gt;B2</title>
<path fill="none" stroke="#000000" d="M51.7146,-160.5708C55.9597,-152.0807 61.1536,-141.6929 65.8663,-132.2674"/>
<polygon fill="#000000" stroke="#000000" points="69.024,-133.7782 70.3657,-123.2687 62.763,-130.6477 69.024,-133.7782"/>
</g>
<!-- A -->
<g id="node7" class="node">
<title>A</title>
<ellipse fill="none" stroke="#000000" cx="282" cy="-178" rx="27" ry="18"/>
<text text-anchor="middle" x="282" y="-173.8" font-family="Times,serif" font-size="14.00" fill="#000000">A</text>
</g>
<!-- A&#45;&gt;B -->
<g id="edge5" class="edge">
<title>A-&gt;B</title>
<path fill="none" stroke="#000000" d="M294.4804,-161.6621C301.5124,-152.4564 310.4347,-140.7764 318.2883,-130.4953"/>
<polygon fill="#000000" stroke="#000000" points="321.28,-132.3446 324.569,-122.2733 315.7172,-128.0953 321.28,-132.3446"/>
</g>
<!-- C -->
<g id="node9" class="node">
<title>C</title>
<ellipse fill="none" stroke="#000000" cx="392" cy="-178" rx="27" ry="18"/>
<text text-anchor="middle" x="392" y="-173.8" font-family="Times,serif" font-size="14.00" fill="#000000">C</text>
</g>
<!-- C&#45;&gt;B -->
<g id="edge6" class="edge">
<title>C-&gt;B</title>
<path fill="none" stroke="#000000" d="M379.5196,-161.6621C372.4876,-152.4564 363.5653,-140.7764 355.7117,-130.4953"/>
<polygon fill="#000000" stroke="#000000" points="358.2828,-128.0953 349.431,-122.2733 352.72,-132.3446 358.2828,-128.0953"/>
</g>
<!-- A1 -->
<g id="node10" class="node">
<title>A1</title>
<ellipse fill="none" stroke="#000000" cx="337" cy="-250" rx="27" ry="18"/>
<text text-anchor="middle" x="337" y="-245.8" font-family="Times,serif" font-size="14.00" fill="#000000">A1</text>
</g>
<!-- A1&#45;&gt;B -->
<g id="edge7" class="edge">
<title>A1-&gt;B</title>
<path fill="none" stroke="#000000" d="M337,-231.7623C337,-207.201 337,-163.2474 337,-134.3541"/>
<polygon fill="#000000" stroke="#000000" points="340.5001,-134.0896 337,-124.0896 333.5001,-134.0897 340.5001,-134.0896"/>
</g>
<!-- A1&#45;&gt;C -->
<g id="edge8" class="edge">
<title>A1-&gt;C</title>
<path fill="none" stroke="#000000" d="M349.4804,-233.6621C356.5124,-224.4564 365.4347,-212.7764 373.2883,-202.4953"/>
<polygon fill="#000000" stroke="#000000" points="376.28,-204.3446 379.569,-194.2733 370.7172,-200.0953 376.28,-204.3446"/>
</g>
<!-- B1 -->
<g id="node11" class="node">
<title>B1</title>
<ellipse fill="none" stroke="#000000" cx="409" cy="-250" rx="27" ry="18"/>
<text text-anchor="middle" x="409" y="-245.8" font-family="Times,serif" font-size="14.00" fill="#000000">B1</text>
</g>
<!-- B1&#45;&gt;C -->
<g id="edge9" class="edge">
<title>B1-&gt;C</title>
<path fill="none" stroke="#000000" d="M404.7978,-232.2022C402.9179,-224.2406 400.6575,-214.6671 398.5629,-205.7957"/>
<polygon fill="#000000" stroke="#000000" points="401.9172,-204.7706 396.2128,-195.8425 395.1045,-206.3792 401.9172,-204.7706"/>
</g>
<!-- C1 -->
<g id="node12" class="node">
<title>C1</title>
<ellipse fill="none" stroke="#000000" cx="481" cy="-250" rx="27" ry="18"/>
<text text-anchor="middle" x="481" y="-245.8" font-family="Times,serif" font-size="14.00" fill="#000000">C1</text>
</g>
</g>
</svg>