<?xml version="1.0" encoding="UTF-8" standalone="no"?>
<!DOCTYPE svg PUBLIC "-//W3C//DTD SVG 1.1//EN"
 "http://www.w3.org/Graphics/SVG/1.1/DTD/svg11.dtd">
<!-- Generated by graphviz version 2.40.1 (20161225.0304)
 -->
<!-- Title: G Pages: 1 -->
<svg width="666pt" height="426pt"
 viewBox="0.00 0.00 666.31 426.00" xmlns="http://www.w3.org/2000/svg" xmlns:xlink="http://www.w3.org/1999/xlink">
<g id="graph0" class="graph" transform="scale(1 1) rotate(0) translate(4 422)">
<title>G</title>
<polygon fill="#ffffff" stroke="transparent" points="-4,4 -4,-422 662.3116,-422 662.3116,4 -4,4"/>
<g id="clust1" class="cluster">
<title>cluster_sub2</title>
<polygon fill="#f5f5f5" stroke="#000000" stroke-dasharray="5,2" points="386.3116,-8 386.3116,-161 650.3116,-161 650.3116,-8 386.3116,-8"/>
<text text-anchor="middle" x="518.3116" y="-144.4" font-family="Times,serif" font-size="14.00" fill="#000000">sub2</text>
</g>
<g id="clust2" class="cluster">
<title>cluster_sub1</title>
<polygon fill="#f5f5f5" stroke="#000000" stroke-dasharray="5,2" points="265,-169 265,-410 561.3116,-410 561.3116,-169 265,-169"/>
<text text-anchor="middle" x="413.1558" y="-393.4" font-family="Times,serif" font-size="14.00" fill="#000000">sub1</text>
</g>
<g id="clust3" class="cluster">
<title>cluster_sub in sub</title>
<polygon fill="#f5f5f5" stroke="#000000" stroke-dasharray="5,2" points="477.3116,-207 477.3116,-306 553.3116,-306 553.3116,-207 477.3116,-207"/>
<text text-anchor="middle" x="515.3116" y="-289.4" font-family="Times,serif" font-size="14.00" fill="#000000">sub in sub</text>
</g>
<!-- A3 -->
<g id="node1" class="node">
<title>A3</title>
<ellipse fill="none" stroke="#000000" cx="421.3116" cy="-110" rx="27" ry="18"/>
<text text-anchor="middle" x="421.3116" y="-105.8" font-family="Times,serif" font-size="14.00" fill="#000000">A3</text>
</g>
<!-- B3 -->
<g id="node2" class="node">
<title>B3</title>
<ellipse fill="none" stroke="#000000" cx="615.3116" cy="-83" rx="27" ry="18"/>
<text text-anchor="middle" x="615.3116" y="-78.8" font-family="Times,serif" font-size="14.00" fill="#000000">B3</text>
</g>
<!-- A3&#45;&gt;B3 -->
<g id="edge1" class="edge">
<title>A3&#45;&gt;B3</title>
<path fill="none" stroke="#000000" d="M447.8797,-106.3024C481.7429,-101.5895 540.4532,-93.4184 578.5828,-88.1117"/>
<polygon fill="#000000" stroke="#000000" points="579.3317,-91.5413 588.7538,-86.6962 578.3667,-84.6082 579.3317,-91.5413"/>
</g>
<!-- C3 -->
<g id="node3" class="node">
<title>C3</title>
<ellipse fill="none" stroke="#000000" cx="421.3116" cy="-56" rx="27" ry="18"/>
<text text-anchor="middle" x="421.3116" y="-51.8" font-family="Times,serif" font-size="14.00" fill="#000000">C3</text>
</g>
<!-- C3&#45;&gt;B3 -->
<g id="edge2" class="edge">
<title>C3&#45;&gt;B3</title>
<path fill="none" stroke="#000000" d="M447.8797,-59.6976C481.7429,-64.4105 540.4532,-72.5816 578.5828,-77.8883"/>
<polygon fill="#000000" stroke="#000000" points="578.3667,-81.3918 588.7538,-79.3038 579.3317,-74.4587 578.3667,-81.3918"/>
</g>
<!-- sub2 -->
<g id="node4" class="node">
<title>sub2</title>
<ellipse fill="#000000" stroke="#000000" cx="421.3116" cy="-18" rx="1.8" ry="1.8"/>
</g>
<!-- done -->
<g id="node5" class="node">
<title>done</title>
<ellipse fill="none" stroke="#000000" cx="515.3116" cy="-255" rx="30" ry="18"/>
<text text-anchor="middle" x="515.3116" y="-250.8" font-family="Times,serif" font-size="14.00" fill="#000000">done</text>
</g>
<!-- sub in sub -->
<g id="node6" class="node">
<title>sub in sub</title>
<ellipse fill="#000000" stroke="#000000" cx="515.3116" cy="-217" rx="1.8" ry="1.8"/>
</g>
<!-- A2 -->
<g id="node7" class="node">
<title>A2</title>
<ellipse fill="none" stroke="#000000" cx="315.1558" cy="-359" rx="27" ry="18"/>
<text text-anchor="middle" x="315.1558" y="-354.8" font-family="Times,serif" font-size="14.00" fill="#000000">A2</text>
</g>
<!-- B2 -->
<g id="node8" class="node">
<title>B2</title>
<ellipse fill="none" stroke="#000000" cx="515.3116" cy="-345" rx="27" ry="18"/>
<text text-anchor="middle" x="515.3116" y="-340.8" font-family="Times,serif" font-size="14.00" fill="#000000">B2</text>
</g>
<!-- A2&#45;&gt;B2 -->
<g id="edge3" class="edge">
<title>A2&#45;&gt;B2</title>
<path fill="none" stroke="#000000" d="M342.1497,-357.1119C377.315,-354.6522 438.9511,-350.3411 478.4132,-347.5809"/>
<polygon fill="#000000" stroke="#000000" points="478.6951,-351.0698 488.4265,-346.8805 478.2066,-344.0869 478.6951,-351.0698"/>
</g>
<!-- C2 -->
<g id="node9" class="node">
<title>C2</title>
<ellipse fill="none" stroke="#000000" cx="315.1558" cy="-305" rx="27" ry="18"/>
<text text-anchor="middle" x="315.1558" y="-300.8" font-family="Times,serif" font-size="14.00" fill="#000000">C2</text>
</g>
<!-- C2&#45;&gt;B2 -->
<g id="edge4" class="edge">
<title>C2&#45;&gt;B2</title>
<path fill="none" stroke="#000000" d="M341.3227,-310.2293C376.6106,-317.2814 439.5989,-329.8693 479.3261,-337.8085"/>
<polygon fill="#000000" stroke="#000000" points="478.6463,-341.2418 489.1383,-339.7694 480.0181,-334.3775 478.6463,-341.2418"/>
</g>
<!-- cond -->
<g id="node10" class="node">
<title>cond</title>
<polygon fill="none" stroke="#00ff00" points="315.1558,-235 272.8436,-217 315.1558,-199 357.4679,-217 315.1558,-235"/>
<text text-anchor="middle" x="315.1558" y="-212.8" font-family="Times,serif" font-size="14.00" fill="#000000">cond</text>
</g>
<!-- cond&#45;&gt;sub in sub -->
<g id="edge6" class="edge">
<title>cond&#45;&gt;sub in sub</title>
<path fill="none" stroke="#000000" stroke-dasharray="5,2" d="M357.6037,-217C403.7562,-217 474.714,-217 503.0287,-217"/>
<polygon fill="#000000" stroke="#000000" points="503.2075,-220.5001 513.2075,-217 503.2075,-213.5001 503.2075,-220.5001"/>
<text text-anchor="middle" x="421.3116" y="-221.2" font-family="Times,serif" font-size="14.00" fill="#000000">0</text>
</g>
<!-- cond&#45;&gt;cond -->
<g id="edge5" class="edge">
<title>cond&#45;&gt;cond</title>
<path fill="none" stroke="#000000" stroke-dasharray="5,2" d="M305.3587,-231.0417C301.6948,-241.9126 304.9605,-253 315.1558,-253 322.1651,-253 325.899,-247.7595 326.3576,-240.9516"/>
<polygon fill="#000000" stroke="#000000" points="329.8218,-240.4515 324.9528,-231.0417 322.8911,-241.434 329.8218,-240.4515"/>
<text text-anchor="middle" x="315.1558" y="-257.2" font-family="Times,serif" font-size="14.00" fill="#000000">1</text>
</g>
<!-- sub1 -->
<g id="node11" class="node">
<title>sub1</title>
<ellipse fill="#000000" stroke="#000000" cx="315.1558" cy="-179" rx="1.8" ry="1.8"/>
</g>
<!-- sub1&#45;&gt;sub2 -->
<g id="edge13" class="edge">
<title>sub1&#45;&gt;sub2</title>
<path fill="none" stroke="#000000" d="M315.4513,-177.2142C317.8223,-163.4558 335.001,-73.6577 386.3116,-29 392.7572,-23.3901 402.0591,-20.639 409.4535,-19.2911"/>
<polygon fill="#000000" stroke="#000000" points="409.9616,-22.7552 419.4679,-18.0775 409.1194,-15.8061 409.9616,-22.7552"/>
</g>
<!-- A -->
<g id="node12" class="node">
<title>A</title>
<ellipse fill="none" stroke="#000000" cx="118" cy="-233" rx="27" ry="18"/>
<text text-anchor="middle" x="118" y="-228.8" font-family="Times,serif" font-size="14.00" fill="#000000">A</text>
</g>
<!-- B -->
<g id="node13" class="node">
<title>B</title>
<ellipse fill="none" stroke="#000000" cx="209" cy="-233" rx="27" ry="18"/>
<text text-anchor="middle" x="209" y="-228.8" font-family="Times,serif" font-size="14.00" fill="#000000">B</text>
</g>
<!-- A&#45;&gt;B -->
<g id="edge7" class="edge">
<title>A&#45;&gt;B</title>
<path fill="none" stroke="#000000" d="M145.303,-233C153.5813,-233 162.8217,-233 171.6405,-233"/>
<polygon fill="#000000" stroke="#000000" points="171.7163,-236.5001 181.7163,-233 171.7162,-229.5001 171.7163,-236.5001"/>
</g>
<!-- C -->
<g id="node14" class="node">
<title>C</title>
<ellipse fill="none" stroke="#000000" cx="118" cy="-179" rx="27" ry="18"/>
<text text-anchor="middle" x="118" y="-174.8" font-family="Times,serif" font-size="14.00" fill="#000000">C</text>
</g>
<!-- C&#45;&gt;B -->
<g id="edge8" class="edge">
<title>C&#45;&gt;B</title>
<path fill="none" stroke="#000000" d="M138.1958,-190.9844C150.3635,-198.2047 166.0711,-207.5257 179.599,-215.5532"/>
<polygon fill="#000000" stroke="#000000" points="178.1599,-218.7691 188.5459,-220.8624 181.7322,-212.7492 178.1599,-218.7691"/>
</g>
<!-- C1 -->
<g id="node15" class="node">
<title>C1</title>
<ellipse fill="none" stroke="#000000" cx="209" cy="-179" rx="27" ry="18"/>
<text text-anchor="middle" x="209" y="-174.8" font-family="Times,serif" font-size="14.00" fill="#000000">C1</text>
</g>
<!-- C&#45;&gt;C1 -->
<g id="edge9" class="edge">
<title>C&#45;&gt;C1</title>
<path fill="none" stroke="#000000" d="M145.303,-179C153.5813,-179 162.8217,-179 171.6405,-179"/>
<polygon fill="#000000" stroke="#000000" points="171.7163,-182.5001 181.7163,-179 171.7162,-175.5001 171.7163,-182.5001"/>
</g>
<!-- C1&#45;&gt;sub1 -->
<g id="edge12" class="edge">
<title>C1&#45;&gt;sub1</title>
<path fill="none" stroke="#000000" d="M236.0623,-179C257.5622,-179 286.6281,-179 302.869,-179"/>
<polygon fill="#000000" stroke="#000000" points="303.0473,-182.5001 313.0472,-179 303.0472,-175.5001 303.0473,-182.5001"/>
</g>
<!-- A1 -->
<g id="node16" class="node">
<title>A1</title>
<ellipse fill="none" stroke="#000000" cx="27" cy="-206" rx="27" ry="18"/>
<text text-anchor="middle" x="27" y="-201.8" font-family="Times,serif" font-size="14.00" fill="#000000">A1</text>
</g>
<!-- A1&#45;&gt;C -->
<g id="edge10" class="edge">
<title>A1&#45;&gt;C</title>
<path fill="none" stroke="#000000" d="M51.8661,-198.6221C61.5966,-195.7351 72.9244,-192.3741 83.4267,-189.258"/>
<polygon fill="#000000" stroke="#000000" points="84.5726,-192.5689 93.1639,-186.3689 82.5814,-185.8581 84.5726,-192.5689"/>
</g>
<!-- B1 -->
<g id="node17" class="node">
<title>B1</title>
<ellipse fill="none" stroke="#000000" cx="27" cy="-152" rx="27" ry="18"/>
<text text-anchor="middle" x="27" y="-147.8" font-family="Times,serif" font-size="14.00" fill="#000000">B1</text>
</g>
<!-- B1&#45;&gt;C -->
<g id="edge11" class="edge">
<title>B1&#45;&gt;C</title>
<path fill="none" stroke="#000000" d="M51.8661,-159.3779C61.5966,-162.2649 72.9244,-165.6259 83.4267,-168.742"/>
<polygon fill="#000000" stroke="#000000" points="82.5814,-172.1419 93.1639,-171.6311 84.5726,-165.4311 82.5814,-172.1419"/>
</g>
</g>
</svg>