<?xml version="1.0" encoding="UTF-8" standalone="no"?>
<!DOCTYPE svg PUBLIC "-//W3C//DTD SVG 1.1//EN"
 "http://www.w3.org/Graphics/SVG/1.1/DTD/svg11.dtd">
<!-- Generated by graphviz version 2.40.1 (20161225.0304)
 -->
<!-- Title: G Pages: 1 -->
<svg width="472pt" height="139pt"
 viewBox="0.00 0.00 472.03 139.00" xmlns="http://www.w3.org/2000/svg" xmlns:xlink="http://www.w3.org/1999/xlink">
<g id="graph0" class="graph" transform="scale(1 1) rotate(0) translate(4 135)">
<title>G</title>
<polygon fill="#ffffff" stroke="transparent" points="-4,4 -4,-135 468.032,-135 468.032,4 -4,4"/>
<!-- init -->
<g id="node1" class="node">
<title>init</title>
<ellipse fill="none" stroke="#000000" cx="27" cy="-59" rx="27" ry="18"/>
<text text-anchor="middle" x="27" y="-54.8" font-family="Times,serif" font-size="14.00" fill="#000000">init</text>
</g>
<!-- while i &lt; 5 -->
<g id="node2" class="node">
<title>while i &lt; 5</title>
<polygon fill="none" stroke="#00ff00" points="165.516,-77 90.984,-59 165.516,-41 240.048,-59 165.516,-77"/>
<text text-anchor="middle" x="165.516" y="-54.8" font-family="Times,serif" font-size="14.00" fill="#000000">while i &lt; 5</text>
</g>
<!-- init&#45;&gt;while i &lt; 5 -->
<g id="edge1" class="edge">
<title>init&#45;&gt;while i &lt; 5</title>
<path fill="none" stroke="#000000" d="M54.0361,-59C61.9831,-59 71.1294,-59 80.6933,-59"/>
<polygon fill="#000000" stroke="#000000" points="80.7784,-62.5001 90.7783,-59 80.7783,-55.5001 80.7784,-62.5001"/>
</g>
<!-- body -->
<g id="node3" class="node">
<title>body</title>
<ellipse fill="none" stroke="#000000" cx="313.532" cy="-113" rx="30.5" ry="18"/>
<text text-anchor="middle" x="313.532" y="-108.8" font-family="Times,serif" font-size="14.00" fill="#000000">body</text>
</g>
<!-- while i &lt; 5&#45;&gt;body -->
<g id="edge2" class="edge">
<title>while i &lt; 5&#45;&gt;body</title>
<path fill="none" stroke="#000000" stroke-dasharray="5,2" d="M195.4693,-69.9277C219.3332,-78.6339 252.8055,-90.8454 278.0182,-100.0437"/>
<polygon fill="#000000" stroke="#000000" points="276.9863,-103.3928 287.5802,-103.5321 279.3854,-96.8167 276.9863,-103.3928"/>
<text text-anchor="middle" x="261.532" y="-97.2" font-family="Times,serif" font-size="14.00" fill="#000000">0</text>
</g>
<!-- done -->
<g id="node4" class="node">
<title>done</title>
<ellipse fill="none" stroke="#000000" cx="313.532" cy="-59" rx="30" ry="18"/>
<text text-anchor="middle" x="313.532" y="-54.8" font-family="Times,serif" font-size="14.00" fill="#000000">done</text>
</g>
<!-- while i &lt; 5&#45;&gt;done -->
<g id="edge3" class="edge">
<title>while i &lt; 5&#45;&gt;done</title>
<path fill="none" stroke="#000000" stroke-dasharray="5,2" d="M240.3913,-59C251.6735,-59 262.9289,-59 273.1084,-59"/>
<polygon fill="#000000" stroke="#000000" points="273.2831,-62.5001 283.2831,-59 273.283,-55.5001 273.2831,-62.5001"/>
<text text-anchor="middle" x="261.532" y="-63.2" font-family="Times,serif" font-size="14.00" fill="#000000">1</text>
</g>
<!-- back -->
<g id="node5" class="node">
<title>back</title>
<polygon fill="none" stroke="#00ff00" points="422.532,-36 381.032,-18 422.532,0 464.032,-18 422.532,-36"/>
<text text-anchor="middle" x="422.532" y="-13.8" font-family="Times,serif" font-size="14.00" fill="#000000">back</text>
</g>
<!-- body&#45;&gt;back -->
<g id="edge4" class="edge">
<title>body&#45;&gt;back</title>
<path fill="none" stroke="#000000" d="M331.0447,-97.7366C350.0642,-81.16 380.4627,-54.6659 400.9452,-36.8142"/>
<polygon fill="#000000" stroke="#000000" points="403.2889,-39.4143 408.5279,-30.2054 398.6896,-34.1373 403.2889,-39.4143"/>
</g>
<!-- back&#45;&gt;while i &lt; 5 -->
<g id="edge5" class="edge">
<title>back&#45;&gt;while i &lt; 5</title>
<path fill="none" stroke="#000000" stroke-dasharray="5,2" d="M384.608,-16.3742C371.7313,-15.8949 357.2579,-15.4358 344.032,-15.2 316.9252,-14.7167 309.7129,-10.3894 283.032,-15.2 253.9708,-20.4397 222.7185,-32.421 199.7534,-42.5301"/>
<polygon fill="#000000" stroke="#000000" points="198.1283,-39.4234 190.4491,-46.7228 201.0042,-45.8054 198.1283,-39.4234"/>
<text text-anchor="middle" x="313.532" y="-20.2" font-family="Times,serif" font-size="14.00" fill="#000000">0</text>
</g>
</g>
</svg>