<?xml version="1.0" encoding="UTF-8" standalone="no"?>
<!DOCTYPE svg PUBLIC "-//W3C//DTD SVG 1.1//EN"
 "http://www.w3.org/Graphics/SVG/1.1/DTD/svg11.dtd">
<!-- Generated by graphviz version 13.0.1 (20250615.1724)
 -->
<!-- Title: crawl&#45;pipeline Pages: 1 -->
<svg width="796pt" height="107pt"
 viewBox="0.00 0.00 796.00 107.00" xmlns="http://www.w3.org/2000/svg" xmlns:xlink="http://www.w3.org/1999/xlink">
<g id="graph0" class="graph" transform="scale(1 1) rotate(0) translate(4 103)">
<title>crawl&#45;pipeline</title>
<polygon fill="white" stroke="none" points="-4,4 -4,-103 792.07,-103 792.07,4 -4,4"/>
<!-- init -->
<g id="node1" class="node">
<title>init</title>
<ellipse fill="none" stroke="black" cx="27" cy="-20" rx="27" ry="18"/>
<text xml:space="preserve" text-anchor="middle" x="27" y="-14.95" font-family="Times,serif" font-size="14.00">init</text>
</g>
<!-- fetch_pages -->
<g id="node2" class="node">
<title>fetch_pages</title>
<ellipse fill="none" stroke="black" cx="145.93" cy="-20" rx="54.93" ry="18"/>
<text xml:space="preserve" text-anchor="middle" x="145.93" y="-14.95" font-family="Times,serif" font-size="14.00">fetch_pages</text>
</g>
<!-- init&#45;&gt;fetch_pages -->
<g id="edge1" class="edge">
<title>init&#45;&gt;fetch_pages</title>
<path fill="none" stroke="black" d="M54.24,-20C61.82,-20 70.44,-20 79.29,-20"/>
<polygon fill="black" stroke="black" points="79.04,-23.5 89.04,-20 79.04,-16.5 79.04,-23.5"/>
</g>
<!-- parse -->
<g id="node3" class="node">
<title>parse</title>
<ellipse fill="none" stroke="black" cx="268.24" cy="-54" rx="30.37" ry="18"/>
<text xml:space="preserve" text-anchor="middle" x="268.24" y="-48.95" font-family="Times,serif" font-size="14.00">parse</text>
</g>
<!-- fetch_pages&#45;&gt;parse -->
<g id="edge2" class="edge">
<title>fetch_pages&#45;&gt;parse</title>
<path fill="none" stroke="black" d="M188.33,-31.7C201.69,-35.47 216.41,-39.64 229.48,-43.33"/>
<polygon fill="black" stroke="black" points="228.44,-46.67 239.02,-46.02 230.35,-39.94 228.44,-46.67"/>
</g>
<!-- validate_quality -->
<g id="node4" class="node">
<title>validate_quality</title>
<polygon fill="none" stroke="green" points="440.76,-72 341.35,-54 440.76,-36 540.16,-54 440.76,-72"/>
<text xml:space="preserve" text-anchor="middle" x="440.76" y="-48.95" font-family="Times,serif" font-size="14.00">validate_quality</text>
</g>
<!-- parse&#45;&gt;validate_quality -->
<g id="edge3" class="edge">
<title>parse&#45;&gt;validate_quality</title>
<path fill="none" stroke="black" d="M298.94,-54C307.35,-54 317.03,-54 327.31,-54"/>
<polygon fill="black" stroke="black" points="327.14,-57.5 337.14,-54 327.14,-50.5 327.14,-57.5"/>
</g>
<!-- backoff -->
<g id="node5" class="node">
<title>backoff</title>
<polygon fill="none" stroke="green" points="638.16,-36 582.91,-18 638.16,0 693.41,-18 638.16,-36"/>
<text xml:space="preserve" text-anchor="middle" x="638.16" y="-12.95" font-family="Times,serif" font-size="14.00">backoff</text>
</g>
<!-- validate_quality&#45;&gt;backoff -->
<g id="edge5" class="edge">
<title>validate_quality&#45;&gt;backoff</title>
<path fill="none" stroke="black" stroke-dasharray="5,2" d="M491.82,-44.78C522.3,-39.16 560.97,-32.04 590.76,-26.55"/>
<polygon fill="black" stroke="black" points="591.02,-30.06 600.22,-24.81 589.75,-23.18 591.02,-30.06"/>
<text xml:space="preserve" text-anchor="middle" x="561.53" y="-34.92" font-family="Times,serif" font-size="14.00">1</text>
</g>
<!-- index -->
<g id="node6" class="node">
<title>index</title>
<ellipse fill="none" stroke="black" cx="638.16" cy="-81" rx="31.39" ry="18"/>
<text xml:space="preserve" text-anchor="middle" x="638.16" y="-75.95" font-family="Times,serif" font-size="14.00">index</text>
</g>
<!-- validate_quality&#45;&gt;index -->
<g id="edge4" class="edge">
<title>validate_quality&#45;&gt;index</title>
<path fill="none" stroke="black" stroke-dasharray="5,2" d="M499.06,-61.92C530.24,-66.23 568.08,-71.45 596.26,-75.35"/>
<polygon fill="black" stroke="black" points="595.43,-78.77 605.81,-76.67 596.39,-71.83 595.43,-78.77"/>
<text xml:space="preserve" text-anchor="middle" x="561.53" y="-73.91" font-family="Times,serif" font-size="14.00">0</text>
</g>
<!-- backoff&#45;&gt;fetch_pages -->
<g id="edge6" class="edge">
<title>backoff&#45;&gt;fetch_pages</title>
<path fill="none" stroke="black" stroke-dasharray="5,2" d="M582.2,-18.22C491.36,-18.59 310.25,-19.33 212.74,-19.73"/>
<polygon fill="black" stroke="black" points="212.77,-16.23 202.78,-19.77 212.8,-23.23 212.77,-16.23"/>
<text xml:space="preserve" text-anchor="middle" x="319.98" y="-22.51" font-family="Times,serif" font-size="14.00">0</text>
</g>
<!-- done -->
<g id="node7" class="node">
<title>done</title>
<ellipse fill="none" stroke="black" cx="759.24" cy="-81" rx="28.83" ry="18"/>
<text xml:space="preserve" text-anchor="middle" x="759.24" y="-75.95" font-family="Times,serif" font-size="14.00">done</text>
</g>
<!-- index&#45;&gt;done -->
<g id="edge7" class="edge">
<title>index&#45;&gt;done</title>
<path fill="none" stroke="black" d="M669.83,-81C684.8,-81 702.98,-81 718.96,-81"/>
<polygon fill="black" stroke="black" points="718.61,-84.5 728.61,-81 718.61,-77.5 718.61,-84.5"/>
</g>
</g>
</svg>
