<?xml version="1.0" encoding="UTF-8" standalone="no"?>
<!DOCTYPE svg PUBLIC "-//W3C//DTD SVG 1.1//EN"
 "http://www.w3.org/Graphics/SVG/1.1/DTD/svg11.dtd">
<!-- Generated by graphviz version 2.40.1 (20161225.0304)
 -->
<!-- Title: G Pages: 1 -->
<svg width="242pt" height="152pt"
 viewBox="0.00 0.00 242.00 152.00" xmlns="http://www.w3.org/2000/svg" xmlns:xlink="http://www.w3.org/1999/xlink">
<g id="graph0" class="graph" transform="scale(1 1) rotate(0) translate(4 148)">
<title>G</title>
<polygon fill="#ffffff" stroke="transparent" points="-4,4 -4,-148 238,-148 238,4 -4,4"/>
<!-- A -->
<g id="node1" class="node">
<title>A</title>
<ellipse fill="none" stroke="#000000" cx="117" cy="-118" rx="27" ry="18"/>
<text text-anchor="middle" x="117" y="-113.8" font-family="Times,serif" font-size="14.00" fill="#000000">A</text>
</g>
<!-- B -->
<g id="node2" class="node">
<title>B</title>
<ellipse fill="none" stroke="#000000" cx="207" cy="-72" rx="27" ry="18"/>
<text text-anchor="middle" x="207" y="-67.8" font-family="Times,serif" font-size="14.00" fill="#000000">B</text>
</g>
<!-- A&#45;&gt;B -->
<g id="edge1" class="edge">
<title>A&#45;&gt;B</title>
<path fill="none" stroke="#000000" d="M138.7865,-106.8647C150.0625,-101.1014 164.0163,-93.9694 176.3599,-87.6605"/>
<polygon fill="#000000" stroke="#000000" points="178.1027,-90.7005 185.4141,-83.0328 174.9169,-84.4674 178.1027,-90.7005"/>
</g>
<!-- C -->
<g id="node3" class="node">
<title>C</title>
<ellipse fill="none" stroke="#000000" cx="117" cy="-26" rx="27" ry="18"/>
<text text-anchor="middle" x="117" y="-21.8" font-family="Times,serif" font-size="14.00" fill="#000000">C</text>
</g>
<!-- C&#45;&gt;B -->
<g id="edge2" class="edge">
<title>C&#45;&gt;B</title>
<path fill="none" stroke="#000000" d="M138.7865,-37.1353C150.0625,-42.8986 164.0163,-50.0306 176.3599,-56.3395"/>
<polygon fill="#000000" stroke="#000000" points="174.9169,-59.5326 185.4141,-60.9672 178.1027,-53.2995 174.9169,-59.5326"/>
</g>
<!-- A1 -->
<g id="node4" class="node">
<title>A1</title>
<ellipse fill="none" stroke="#000000" cx="27" cy="-72" rx="27" ry="18"/>
<text text-anchor="middle" x="27" y="-67.8" font-family="Times,serif" font-size="14.00" fill="#000000">A1</text>
</g>
<!-- A1&#45;&gt;B -->
<g id="edge3" class="edge">
<title>A1&#45;&gt;B</title>
<path fill="none" stroke="#000000" d="M54.3381,-72C85.1765,-72 135.5008,-72 169.8771,-72"/>
<polygon fill="#000000" stroke="#000000" points="169.9944,-75.5001 179.9944,-72 169.9943,-68.5001 169.9944,-75.5001"/>
</g>
<!-- A1&#45;&gt;C -->
<g id="edge4" class="edge">
<title>A1&#45;&gt;C</title>
<path fill="none" stroke="#000000" d="M48.7865,-60.8647C60.0625,-55.1014 74.0163,-47.9694 86.3599,-41.6605"/>
<polygon fill="#000000" stroke="#000000" points="88.1027,-44.7005 95.4141,-37.0328 84.9169,-38.4674 88.1027,-44.7005"/>
</g>
<!-- B1 -->
<g id="node5" class="node">
<title>B1</title>
<ellipse fill="none" stroke="#000000" cx="27" cy="-18" rx="27" ry="18"/>
<text text-anchor="middle" x="27" y="-13.8" font-family="Times,serif" font-size="14.00" fill="#000000">B1</text>
</g>
<!-- B1&#45;&gt;C -->
<g id="edge5" class="edge">
<title>B1&#45;&gt;C</title>
<path fill="none" stroke="#000000" d="M54.003,-20.4003C62.1903,-21.128 71.3292,-21.9404 80.051,-22.7156"/>
<polygon fill="#000000" stroke="#000000" points="79.7454,-26.2022 90.0161,-23.6014 80.3653,-19.2297 79.7454,-26.2022"/>
</g>
<!-- C1 -->
<g id="node6" class="node">
<title>C1</title>
<ellipse fill="none" stroke="#000000" cx="27" cy="-126" rx="27" ry="18"/>
<text text-anchor="middle" x="27" y="-121.8" font-family="Times,serif" font-size="14.00" fill="#000000">C1</text>
</g>
</g>
</svg>