<svg xmlns="http://www.w3.org/2000/svg" xmlns:xlink="http://www.w3.org/1999/xlink" width="519pt" height="206pt" viewBox="0.00 0.00 518.61 206.00">
<g id="graph0" class="graph" transform="scale(1 1) rotate(0) translate(4 202)">
<title>wordcount</title>
<polygon fill="white" stroke="none" points="-4,4 -4,-202 514.61,-202 514.61,4 -4,4"/>
<!-- split_input -->
<g id="node1" class="node">
<title>split_input</title>
<ellipse fill="none" stroke="black" cx="52.35" cy="-99" rx="52.35" ry="18"/>
<text text-anchor="middle" x="52.35" y="-94.8" font-family="Times,serif" font-size="14.00">split_input</text>
</g>
<!-- map_0 -->
<g id="node2" class="node">
<title>map_0</title>
<ellipse fill="none" stroke="black" cx="178.03" cy="-72" rx="37.32" ry="18"/>
<text text-anchor="middle" x="178.03" y="-67.8" font-family="Times,serif" font-size="14.00">map_0</text>
</g>
<!-- split_input&#45;&gt;map_0 -->
<g id="edge1" class="edge">
<title>split_input-&gt;map_0</title>
<path fill="none" stroke="black" d="M97.3,-89.4C108.65,-86.93 120.89,-84.26 132.28,-81.77"/>
<polygon fill="black" stroke="black" points="132.82,-85.23 141.85,-79.68 131.33,-78.39 132.82,-85.23"/>
</g>
<!-- map_1 -->
<g id="node3" class="node">
<title>map_1</title>
<ellipse fill="none" stroke="black" cx="178.03" cy="-18" rx="37.32" ry="18"/>
<text text-anchor="middle" x="178.03" y="-13.8" font-family="Times,serif" font-size="14.00">map_1</text>
</g>
<!-- split_input&#45;&gt;map_1 -->
<g id="edge2" class="edge">
<title>split_input-&gt;map_1</title>
<path fill="none" stroke="black" d="M77.79,-83C97.23,-70.26 124.58,-52.35 145.65,-38.55"/>
<polygon fill="black" stroke="black" points="147.41,-41.58 153.86,-33.17 143.58,-35.72 147.41,-41.58"/>
</g>
<!-- map_2 -->
<g id="node4" class="node">
<title>map_2</title>
<ellipse fill="none" stroke="black" cx="178.03" cy="-180" rx="37.32" ry="18"/>
<text text-anchor="middle" x="178.03" y="-175.8" font-family="Times,serif" font-size="14.00">map_2</text>
</g>
<!-- split_input&#45;&gt;map_2 -->
<g id="edge3" class="edge">
<title>split_input-&gt;map_2</title>
<path fill="none" stroke="black" d="M77.79,-115C97.23,-127.74 124.58,-145.65 145.65,-159.45"/>
<polygon fill="black" stroke="black" points="143.58,-162.28 153.86,-164.83 147.41,-156.42 143.58,-162.28"/>
</g>
<!-- map_3 -->
<g id="node5" class="node">
<title>map_3</title>
<ellipse fill="none" stroke="black" cx="178.03" cy="-126" rx="37.32" ry="18"/>
<text text-anchor="middle" x="178.03" y="-121.8" font-family="Times,serif" font-size="14.00">map_3</text>
</g>
<!-- split_input&#45;&gt;map_3 -->
<g id="edge4" class="edge">
<title>split_input-&gt;map_3</title>
<path fill="none" stroke="black" d="M97.3,-108.6C108.65,-111.07 120.89,-113.74 132.28,-116.23"/>
<polygon fill="black" stroke="black" points="131.33,-119.61 141.85,-118.32 132.82,-112.77 131.33,-119.61"/>
</g>
<!-- reduce_0 -->
<g id="node6" class="node">
<title>reduce_0</title>
<ellipse fill="none" stroke="black" cx="297.77" cy="-126" rx="46.43" ry="18"/>
<text text-anchor="middle" x="297.77" y="-121.8" font-family="Times,serif" font-size="14.00">reduce_0</text>
</g>
<!-- map_0&#45;&gt;reduce_0 -->
<g id="edge5" class="edge">
<title>map_0-&gt;reduce_0</title>
<path fill="none" stroke="black" d="M206.04,-84.39C221.11,-91.3 240.16,-100.04 256.91,-107.72"/>
<polygon fill="black" stroke="black" points="255.07,-110.72 265.61,-111.71 257.98,-104.36 255.07,-110.72"/>
</g>
<!-- reduce_1 -->
<g id="node7" class="node">
<title>reduce_1</title>
<ellipse fill="none" stroke="black" cx="297.77" cy="-72" rx="46.43" ry="18"/>
<text text-anchor="middle" x="297.77" y="-67.8" font-family="Times,serif" font-size="14.00">reduce_1</text>
</g>
<!-- map_0&#45;&gt;reduce_1 -->
<g id="edge6" class="edge">
<title>map_0-&gt;reduce_1</title>
<path fill="none" stroke="black" d="M215.64,-72C223.25,-72 231.45,-72 239.61,-72"/>
<polygon fill="black" stroke="black" points="239.53,-75.5 249.53,-72 239.53,-68.5 239.53,-75.5"/>
</g>
<!-- map_1&#45;&gt;reduce_0 -->
<g id="edge7" class="edge">
<title>map_1-&gt;reduce_0</title>
<path fill="none" stroke="black" d="M201.16,-32.56C206.1,-36.31 211.13,-40.56 215.35,-45 235.21,-65.91 230.43,-79.14 251.35,-99 253.72,-101.25 256.31,-103.4 259.01,-105.43"/>
<polygon fill="black" stroke="black" points="256.99,-108.28 267.23,-111 260.91,-102.49 256.99,-108.28"/>
</g>
<!-- map_1&#45;&gt;reduce_1 -->
<g id="edge8" class="edge">
<title>map_1-&gt;reduce_1</title>
<path fill="none" stroke="black" d="M206.04,-30.39C221.11,-37.3 240.16,-46.04 256.91,-53.72"/>
<polygon fill="black" stroke="black" points="255.07,-56.72 265.61,-57.71 257.98,-50.36 255.07,-56.72"/>
</g>
<!-- map_2&#45;&gt;reduce_0 -->
<g id="edge9" class="edge">
<title>map_2-&gt;reduce_0</title>
<path fill="none" stroke="black" d="M206.04,-167.61C221.11,-160.7 240.16,-151.96 256.91,-144.28"/>
<polygon fill="black" stroke="black" points="257.98,-147.64 265.61,-140.29 255.07,-141.28 257.98,-147.64"/>
</g>
<!-- map_2&#45;&gt;reduce_1 -->
<g id="edge10" class="edge">
<title>map_2-&gt;reduce_1</title>
<path fill="none" stroke="black" d="M201.16,-165.44C206.1,-161.69 211.13,-157.44 215.35,-153 235.21,-132.09 230.43,-118.86 251.35,-99 253.72,-96.75 256.31,-94.6 259.01,-92.57"/>
<polygon fill="black" stroke="black" points="260.91,-95.51 267.23,-87 256.99,-89.72 260.91,-95.51"/>
</g>
<!-- map_3&#45;&gt;reduce_0 -->
<g id="edge11" class="edge">
<title>map_3-&gt;reduce_0</title>
<path fill="none" stroke="black" d="M215.64,-126C223.25,-126 231.45,-126 239.61,-126"/>
<polygon fill="black" stroke="black" points="239.53,-129.5 249.53,-126 239.53,-122.5 239.53,-129.5"/>
</g>
<!-- map_3&#45;&gt;reduce_1 -->
<g id="edge12" class="edge">
<title>map_3-&gt;reduce_1</title>
<path fill="none" stroke="black" d="M206.04,-113.61C221.11,-106.7 240.16,-97.96 256.91,-90.28"/>
<polygon fill="black" stroke="black" points="257.98,-93.64 265.61,-86.29 255.07,-87.28 257.98,-93.64"/>
</g>
<!-- merge_results -->
<g id="node8" class="node">
<title>merge_results</title>
<ellipse fill="none" stroke="black" cx="445.4" cy="-99" rx="65.21" ry="18"/>
<text text-anchor="middle" x="445.4" y="-94.8" font-family="Times,serif" font-size="14.00">merge_results</text>
</g>
<!-- reduce_0&#45;&gt;merge_results -->
<g id="edge13" class="edge">
<title>reduce_0-&gt;merge_results</title>
<path fill="none" stroke="black" d="M340.11,-118.34C352.33,-116.07 366.02,-113.53 379.35,-111.06"/>
<polygon fill="black" stroke="black" points="379.75,-114.55 388.94,-109.28 378.47,-107.66 379.75,-114.55"/>
</g>
<!-- reduce_1&#45;&gt;merge_results -->
<g id="edge14" class="edge">
<title>reduce_1-&gt;merge_results</title>
<path fill="none" stroke="black" d="M340.11,-79.66C352.33,-81.93 366.02,-84.47 379.35,-86.94"/>
<polygon fill="black" stroke="black" points="378.47,-90.34 388.94,-88.72 379.75,-83.45 378.47,-90.34"/>
</g>
</g>
</svg>