<?xml version="1.0" encoding="UTF-8" standalone="no"?>
<!DOCTYPE svg PUBLIC "-//W3C//DTD SVG 1.1//EN"
 "http://www.w3.org/Graphics/SVG/1.1/DTD/svg11.dtd">
<!-- Generated by graphviz version 13.0.1 (20250615.1724)
 -->
<!-- Title: word&#45;count Pages: 1 -->
<svg width="505pt" height="206pt"
 viewBox="0.00 0.00 505.00 206.00" xmlns="http://www.w3.org/2000/svg" xmlns:xlink="http://www.w3.org/1999/xlink">
<g id="graph0" class="graph" transform="scale(1 1) rotate(0) translate(4 202)">
<title>word&#45;count</title>
<polygon fill="white" stroke="none" points="-4,4 -4,-202 501.32,-202 501.32,4 -4,4"/>
<!-- map_1 -->
<g id="node1" class="node">
<title>map_1</title>
<ellipse fill="none" stroke="black" cx="173.16" cy="-72" rx="36.51" ry="18"/>
<text xml:space="preserve" text-anchor="middle" x="173.16" y="-66.95" font-family="Times,serif" font-size="14.00">map_1</text>
</g>
<!-- reduce_0 -->
<g id="node4" class="node">
<title>reduce_0</title>
<ellipse fill="none" stroke="black" cx="290.37" cy="-126" rx="44.7" ry="18"/>
<text xml:space="preserve" text-anchor="middle" x="290.37" y="-120.95" font-family="Times,serif" font-size="14.00">reduce_0</text>
</g>
<!-- map_1&#45;&gt;reduce_0 -->
<g id="edge7" class="edge">
<title>map_1&#45;&gt;reduce_0</title>
<path fill="none" stroke="black" d="M200.6,-84.39C215.2,-91.23 233.63,-99.87 249.91,-107.5"/>
<polygon fill="black" stroke="black" points="248.32,-110.62 258.86,-111.7 251.29,-104.29 248.32,-110.62"/>
</g>
<!-- reduce_1 -->
<g id="node5" class="node">
<title>reduce_1</title>
<ellipse fill="none" stroke="black" cx="290.37" cy="-72" rx="44.7" ry="18"/>
<text xml:space="preserve" text-anchor="middle" x="290.37" y="-66.95" font-family="Times,serif" font-size="14.00">reduce_1</text>
</g>
<!-- map_1&#45;&gt;reduce_1 -->
<g id="edge8" class="edge">
<title>map_1&#45;&gt;reduce_1</title>
<path fill="none" stroke="black" d="M209.99,-72C217.62,-72 225.85,-72 234.02,-72"/>
<polygon fill="black" stroke="black" points="233.95,-75.5 243.95,-72 233.95,-68.5 233.95,-75.5"/>
</g>
<!-- map_2 -->
<g id="node2" class="node">
<title>map_2</title>
<ellipse fill="none" stroke="black" cx="173.16" cy="-18" rx="36.51" ry="18"/>
<text xml:space="preserve" text-anchor="middle" x="173.16" y="-12.95" font-family="Times,serif" font-size="14.00">map_2</text>
</g>
<!-- map_2&#45;&gt;reduce_0 -->
<g id="edge9" class="edge">
<title>map_2&#45;&gt;reduce_0</title>
<path fill="none" stroke="black" d="M195.79,-32.62C200.62,-36.37 205.54,-40.6 209.67,-45 229.43,-66.02 224.93,-78.96 245.67,-99 247.88,-101.13 250.29,-103.18 252.8,-105.13"/>
<polygon fill="black" stroke="black" points="250.74,-107.96 260.93,-110.84 254.76,-102.23 250.74,-107.96"/>
</g>
<!-- map_2&#45;&gt;reduce_1 -->
<g id="edge10" class="edge">
<title>map_2&#45;&gt;reduce_1</title>
<path fill="none" stroke="black" d="M200.6,-30.39C215.2,-37.23 233.63,-45.87 249.91,-53.5"/>
<polygon fill="black" stroke="black" points="248.32,-56.62 258.86,-57.7 251.29,-50.29 248.32,-56.62"/>
</g>
<!-- map_3 -->
<g id="node3" class="node">
<title>map_3</title>
<ellipse fill="none" stroke="black" cx="173.16" cy="-180" rx="36.51" ry="18"/>
<text xml:space="preserve" text-anchor="middle" x="173.16" y="-174.95" font-family="Times,serif" font-size="14.00">map_3</text>
</g>
<!-- map_3&#45;&gt;reduce_0 -->
<g id="edge11" class="edge">
<title>map_3&#45;&gt;reduce_0</title>
<path fill="none" stroke="black" d="M200.6,-167.61C215.2,-160.77 233.63,-152.13 249.91,-144.5"/>
<polygon fill="black" stroke="black" points="251.29,-147.71 258.86,-140.3 248.32,-141.38 251.29,-147.71"/>
</g>
<!-- map_3&#45;&gt;reduce_1 -->
<g id="edge12" class="edge">
<title>map_3&#45;&gt;reduce_1</title>
<path fill="none" stroke="black" d="M195.79,-165.38C200.62,-161.63 205.54,-157.4 209.67,-153 229.43,-131.98 224.93,-119.04 245.67,-99 247.88,-96.87 250.29,-94.82 252.8,-92.87"/>
<polygon fill="black" stroke="black" points="254.76,-95.77 260.93,-87.16 250.74,-90.04 254.76,-95.77"/>
</g>
<!-- merge_results -->
<g id="node6" class="node">
<title>merge_results</title>
<ellipse fill="none" stroke="black" cx="434.19" cy="-99" rx="63.12" ry="18"/>
<text xml:space="preserve" text-anchor="middle" x="434.19" y="-93.95" font-family="Times,serif" font-size="14.00">merge_results</text>
</g>
<!-- reduce_0&#45;&gt;merge_results -->
<g id="edge13" class="edge">
<title>reduce_0&#45;&gt;merge_results</title>
<path fill="none" stroke="black" d="M331.25,-118.41C343.29,-116.12 356.81,-113.54 369.97,-111.04"/>
<polygon fill="black" stroke="black" points="370.24,-114.55 379.41,-109.24 368.93,-107.67 370.24,-114.55"/>
</g>
<!-- reduce_1&#45;&gt;merge_results -->
<g id="edge14" class="edge">
<title>reduce_1&#45;&gt;merge_results</title>
<path fill="none" stroke="black" d="M331.25,-79.59C343.29,-81.88 356.81,-84.46 369.97,-86.96"/>
<polygon fill="black" stroke="black" points="368.93,-90.33 379.41,-88.76 370.24,-83.45 368.93,-90.33"/>
</g>
<!-- split_input -->
<g id="node7" class="node">
<title>split_input</title>
<ellipse fill="none" stroke="black" cx="50.33" cy="-99" rx="50.33" ry="18"/>
<text xml:space="preserve" text-anchor="middle" x="50.33" y="-93.95" font-family="Times,serif" font-size="14.00">split_input</text>
</g>
<!-- split_input&#45;&gt;map_1 -->
<g id="edge2" class="edge">
<title>split_input&#45;&gt;map_1</title>
<path fill="none" stroke="black" d="M93.59,-89.56C104.82,-87.05 116.97,-84.33 128.29,-81.8"/>
<polygon fill="black" stroke="black" points="128.78,-85.28 137.78,-79.68 127.26,-78.45 128.78,-85.28"/>
</g>
<!-- split_input&#45;&gt;map_2 -->
<g id="edge3" class="edge">
<title>split_input&#45;&gt;map_2</title>
<path fill="none" stroke="black" d="M75.2,-83C94.12,-70.32 120.68,-52.51 141.23,-38.74"/>
<polygon fill="black" stroke="black" points="143.16,-41.66 149.51,-33.18 139.26,-35.84 143.16,-41.66"/>
</g>
<!-- split_input&#45;&gt;map_3 -->
<g id="edge4" class="edge">
<title>split_input&#45;&gt;map_3</title>
<path fill="none" stroke="black" d="M75.2,-115C94.12,-127.68 120.68,-145.49 141.23,-159.26"/>
<polygon fill="black" stroke="black" points="139.26,-162.16 149.51,-164.82 143.16,-156.34 139.26,-162.16"/>
</g>
<!-- map_0 -->
<g id="node8" class="node">
<title>map_0</title>
<ellipse fill="none" stroke="black" cx="173.16" cy="-126" rx="36.51" ry="18"/>
<text xml:space="preserve" text-anchor="middle" x="173.16" y="-120.95" font-family="Times,serif" font-size="14.00">map_0</text>
</g>
<!-- split_input&#45;&gt;map_0 -->
<g id="edge1" class="edge">
<title>split_input&#45;&gt;map_0</title>
<path fill="none" stroke="black" d="M93.59,-108.44C104.82,-110.95 116.97,-113.67 128.29,-116.2"/>
<polygon fill="black" stroke="black" points="127.26,-119.55 137.78,-118.32 128.78,-112.72 127.26,-119.55"/>
</g>
<!-- map_0&#45;&gt;reduce_0 -->
<g id="edge5" class="edge">
<title>map_0&#45;&gt;reduce_0</title>
<path fill="none" stroke="black" d="M209.99,-126C217.62,-126 225.85,-126 234.02,-126"/>
<polygon fill="black" stroke="black" points="233.95,-129.5 243.95,-126 233.95,-122.5 233.95,-129.5"/>
</g>
<!-- map_0&#45;&gt;reduce_1 -->
<g id="edge6" class="edge">
<title>map_0&#45;&gt;reduce_1</title>
<path fill="none" stroke="black" d="M200.6,-113.61C215.2,-106.77 233.63,-98.13 249.91,-90.5"/>
<polygon fill="black" stroke="black" points="251.29,-93.71 258.86,-86.3 248.32,-87.38 251.29,-93.71"/>
</g>
</g>
</svg>
