<?xml version="1.0" encoding="UTF-8" standalone="no"?>
<!DOCTYPE svg PUBLIC "-//W3C//DTD SVG 1.1//EN"
 "http://www.w3.org/Graphics/SVG/1.1/DTD/svg11.dtd">
<!-- Generated by graphviz version 2.40.1 (20161225.0304)
 -->
<!-- Title: G Pages: 1 -->
<svg width="348pt" height="430pt"
 viewBox="0.00 0.00 348.00 430.00" xmlns="http://www.w3.org/2000/svg" xmlns:xlink="http://www.w3.org/1999/xlink">
<g id="graph0" class="graph" transform="scale(1 1) rotate(0) translate(4 426)">
<title>G</title>
<polygon fill="#ffffff" stroke="transparent" points="-4,4 -4,-426 344,-426 344,4 -4,4"/>
<g id="clust1" class="cluster">
<title>cluster_sub2</title>
<polygon fill="#f5f5f5" stroke="#000000" stroke-dasharray="5,2" points="172,-100 172,-253 332,-253 332,-100 172,-100"/>
<text text-anchor="middle" x="252" y="-236.4" font-family="Times,serif" font-size="14.00" fill="#000000">sub2</text>
</g>
<g id="clust2" class="cluster">
<title>cluster_sub1</title>
<polygon fill="#f5f5f5" stroke="#000000" stroke-dasharray="5,2" points="82,-261 82,-414 242,-414 242,-261 82,-261"/>
<text text-anchor="middle" x="162" y="-397.4" font-family="Times,serif" font-size="14.00" fill="#000000">sub1</text>
</g>
<!-- A3 -->
<g id="node1" class="node">
<title>A3</title>
<ellipse fill="none" stroke="#000000" cx="207" cy="-202" rx="27" ry="18"/>
<text text-anchor="middle" x="207" y="-197.8" font-family="Times,serif" font-size="14.00" fill="#000000">A3</text>
</g>
<!-- B3 -->
<g id="node2" class="node">
<title>B3</title>
<ellipse fill="none" stroke="#000000" cx="297" cy="-175" rx="27" ry="18"/>
<text text-anchor="middle" x="297" y="-170.8" font-family="Times,serif" font-size="14.00" fill="#000000">B3</text>
</g>
<!-- A3&#45;&gt;B3 -->
<g id="edge1" class="edge">
<title>A3&#45;&gt;B3</title>
<path fill="none" stroke="#000000" d="M232.07,-194.479C241.5102,-191.6469 252.4169,-188.3749 262.564,-185.3308"/>
<polygon fill="#000000" stroke="#000000" points="263.803,-188.6133 272.3755,-182.3874 261.7915,-181.9085 263.803,-188.6133"/>
</g>
<!-- C3 -->
<g id="node3" class="node">
<title>C3</title>
<ellipse fill="none" stroke="#000000" cx="207" cy="-148" rx="27" ry="18"/>
<text text-anchor="middle" x="207" y="-143.8" font-family="Times,serif" font-size="14.00" fill="#000000">C3</text>
</g>
<!-- C3&#45;&gt;B3 -->
<g id="edge2" class="edge">
<title>C3&#45;&gt;B3</title>
<path fill="none" stroke="#000000" d="M232.07,-155.521C241.5102,-158.3531 252.4169,-161.6251 262.564,-164.6692"/>
<polygon fill="#000000" stroke="#000000" points="261.7915,-168.0915 272.3755,-167.6126 263.803,-161.3867 261.7915,-168.0915"/>
</g>
<!-- sub2 -->
<g id="node4" class="node">
<title>sub2</title>
<ellipse fill="#000000" stroke="#000000" cx="207" cy="-110" rx="1.8" ry="1.8"/>
</g>
<!-- A2 -->
<g id="node5" class="node">
<title>A2</title>
<ellipse fill="none" stroke="#000000" cx="117" cy="-363" rx="27" ry="18"/>
<text text-anchor="middle" x="117" y="-358.8" font-family="Times,serif" font-size="14.00" fill="#000000">A2</text>
</g>
<!-- B2 -->
<g id="node6" class="node">
<title>B2</title>
<ellipse fill="none" stroke="#000000" cx="207" cy="-336" rx="27" ry="18"/>
<text text-anchor="middle" x="207" y="-331.8" font-family="Times,serif" font-size="14.00" fill="#000000">B2</text>
</g>
<!-- A2&#45;&gt;B2 -->
<g id="edge3" class="edge">
<title>A2&#45;&gt;B2</title>
<path fill="none" stroke="#000000" d="M142.07,-355.479C151.5102,-352.6469 162.4169,-349.3749 172.564,-346.3308"/>
<polygon fill="#000000" stroke="#000000" points="173.803,-349.6133 182.3755,-343.3874 171.7915,-342.9085 173.803,-349.6133"/>
</g>
<!-- C2 -->
<g id="node7" class="node">
<title>C2</title>
<ellipse fill="none" stroke="#000000" cx="117" cy="-309" rx="27" ry="18"/>
<text text-anchor="middle" x="117" y="-304.8" font-family="Times,serif" font-size="14.00" fill="#000000">C2</text>
</g>
<!-- C2&#45;&gt;B2 -->
<g id="edge4" class="edge">
<title>C2&#45;&gt;B2</title>
<path fill="none" stroke="#000000" d="M142.07,-316.521C151.5102,-319.3531 162.4169,-322.6251 172.564,-325.6692"/>
<polygon fill="#000000" stroke="#000000" points="171.7915,-329.0915 182.3755,-328.6126 173.803,-322.3867 171.7915,-329.0915"/>
</g>
<!-- sub1 -->
<g id="node8" class="node">
<title>sub1</title>
<ellipse fill="#000000" stroke="#000000" cx="117" cy="-271" rx="1.8" ry="1.8"/>
</g>
<!-- sub1&#45;&gt;sub2 -->
<g id="edge11" class="edge">
<title>sub1&#45;&gt;sub2</title>
<path fill="none" stroke="#000000" d="M117.1083,-268.8597C117.9759,-254.0274 125.0412,-165.805 172,-121 178.1823,-115.1012 187.4969,-112.364 194.963,-111.0948"/>
<polygon fill="#000000" stroke="#000000" points="195.5358,-114.5541 205.1194,-110.0371 194.8106,-107.5918 195.5358,-114.5541"/>
</g>
<!-- B -->
<g id="node10" class="node">
<title>B</title>
<ellipse fill="none" stroke="#000000" cx="207" cy="-72" rx="27" ry="18"/>
<text text-anchor="middle" x="207" y="-67.8" font-family="Times,serif" font-size="14.00" fill="#000000">B</text>
</g>
<!-- sub1&#45;&gt;B -->
<g id="edge10" class="edge">
<title>sub1&#45;&gt;B</title>
<path fill="none" stroke="#000000" d="M117.136,-269.0688C118.272,-254.1641 127.2893,-156.414 172,-96 173.7258,-93.6681 175.7487,-91.4858 177.9365,-89.4621"/>
<polygon fill="#000000" stroke="#000000" points="180.161,-92.165 185.8179,-83.2068 175.8092,-86.6821 180.161,-92.165"/>
</g>
<!-- A -->
<g id="node9" class="node">
<title>A</title>
<ellipse fill="none" stroke="#000000" cx="117" cy="-118" rx="27" ry="18"/>
<text text-anchor="middle" x="117" y="-113.8" font-family="Times,serif" font-size="14.00" fill="#000000">A</text>
</g>
<!-- A&#45;&gt;B -->
<g id="edge5" class="edge">
<title>A&#45;&gt;B</title>
<path fill="none" stroke="#000000" d="M138.7865,-106.8647C150.0625,-101.1014 164.0163,-93.9694 176.3599,-87.6605"/>
<polygon fill="#000000" stroke="#000000" points="178.1027,-90.7005 185.4141,-83.0328 174.9169,-84.4674 178.1027,-90.7005"/>
</g>
<!-- C -->
<g id="node11" class="node">
<title>C</title>
<ellipse fill="none" stroke="#000000" cx="117" cy="-26" rx="27" ry="18"/>
<text text-anchor="middle" x="117" y="-21.8" font-family="Times,serif" font-size="14.00" fill="#000000">C</text>
</g>
<!-- C&#45;&gt;B -->
<g id="edge6" class="edge">
<title>C&#45;&gt;B</title>
<path fill="none" stroke="#000000" d="M138.7865,-37.1353C150.0625,-42.8986 164.0163,-50.0306 176.3599,-56.3395"/>
<polygon fill="#000000" stroke="#000000" points="174.9169,-59.5326 185.4141,-60.9672 178.1027,-53.2995 174.9169,-59.5326"/>
</g>
<!-- A1 -->
<g id="node12" class="node">
<title>A1</title>
<ellipse fill="none" stroke="#000000" cx="27" cy="-72" rx="27" ry="18"/>
<text text-anchor="middle" x="27" y="-67.8" font-family="Times,serif" font-size="14.00" fill="#000000">A1</text>
</g>
<!-- A1&#45;&gt;B -->
<g id="edge7" class="edge">
<title>A1&#45;&gt;B</title>
<path fill="none" stroke="#000000" d="M54.3381,-72C85.1765,-72 135.5008,-72 169.8771,-72"/>
<polygon fill="#000000" stroke="#000000" points="169.9944,-75.5001 179.9944,-72 169.9943,-68.5001 169.9944,-75.5001"/>
</g>
<!-- A1&#45;&gt;C -->
<g id="edge8" class="edge">
<title>A1&#45;&gt;C</title>
<path fill="none" stroke="#000000" d="M48.7865,-60.8647C60.0625,-55.1014 74.0163,-47.9694 86.3599,-41.6605"/>
<polygon fill="#000000" stroke="#000000" points="88.1027,-44.7005 95.4141,-37.0328 84.9169,-38.4674 88.1027,-44.7005"/>
</g>
<!-- B1 -->
<g id="node13" class="node">
<title>B1</title>
<ellipse fill="none" stroke="#000000" cx="27" cy="-18" rx="27" ry="18"/>
<text text-anchor="middle" x="27" y="-13.8" font-family="Times,serif" font-size="14.00" fill="#000000">B1</text>
</g>
<!-- B1&#45;&gt;C -->
<g id="edge9" class="edge">
<title>B1&#45;&gt;C</title>
<path fill="none" stroke="#000000" d="M54.003,-20.4003C62.1903,-21.128 71.3292,-21.9404 80.051,-22.7156"/>
<polygon fill="#000000" stroke="#000000" points="79.7454,-26.2022 90.0161,-23.6014 80.3653,-19.2297 79.7454,-26.2022"/>
</g>
<!-- C1 -->
<g id="node14" class="node">
<title>C1</title>
<ellipse fill="none" stroke="#000000" cx="27" cy="-126" rx="27" ry="18"/>
<text text-anchor="middle" x="27" y="-121.8" font-family="Times,serif" font-size="14.00" fill="#000000">C1</text>
</g>
</g>
</svg>