<?xml version="1.0" encoding="UTF-8" standalone="no"?>
<!DOCTYPE svg PUBLIC "-//W3C//DTD SVG 1.1//EN"
 "http://www.w3.org/Graphics/SVG/1.1/DTD/svg11.dtd">
<!-- Generated by graphviz version 13.0.1 (20250615.1724)
 -->
<!-- Title: ci&#45;pipeline Pages: 1 -->
<svg width="507pt" height="482pt"
 viewBox="0.00 0.00 507.00 482.00" xmlns="http://www.w3.org/2000/svg" xmlns:xlink="http://www.w3.org/1999/xlink">
<g id="graph0" class="graph" transform="scale(1 1) rotate(0) translate(4 478)">
<title>ci&#45;pipeline</title>
<polygon fill="white" stroke="none" points="-4,4 -4,-478 503.12,-478 503.12,4 -4,4"/>
<g id="clust1" class="cluster">
<title>cluster_build</title>
<polygon fill="#f5f5f5" stroke="black" stroke-dasharray="5,2" points="8,-259 8,-466 313.22,-466 313.22,-259 8,-259"/>
<text xml:space="preserve" text-anchor="middle" x="160.61" y="-448.7" font-family="Times,serif" font-size="14.00">build</text>
</g>
<g id="clust2" class="cluster">
<title>cluster_test</title>
<polygon fill="#f5f5f5" stroke="black" stroke-dasharray="5,2" points="201.98,-44 201.98,-251 491.12,-251 491.12,-44 201.98,-44"/>
<text xml:space="preserve" text-anchor="middle" x="346.55" y="-233.7" font-family="Times,serif" font-size="14.00">test</text>
</g>
<!-- deploy -->
<g id="node1" class="node">
<title>deploy</title>
<ellipse fill="none" stroke="black" cx="432.79" cy="-18" rx="36" ry="18"/>
<text xml:space="preserve" text-anchor="middle" x="432.79" y="-12.95" font-family="Times,serif" font-size="14.00">deploy</text>
</g>
<!-- build -->
<g id="node2" class="node">
<title>build</title>
<ellipse fill="black" stroke="black" cx="94.99" cy="-269" rx="1.8" ry="1.8"/>
</g>
<!-- test -->
<g id="node3" class="node">
<title>test</title>
<ellipse fill="black" stroke="black" cx="278.22" cy="-54" rx="1.8" ry="1.8"/>
</g>
<!-- build&#45;&gt;test -->
<g id="edge1" class="edge">
<title>build&#45;&gt;test</title>
<path fill="none" stroke="black" d="M96.26,-267.36C99.07,-251.24 123.93,-120.53 201.98,-65 220.69,-51.68 248.73,-51.39 264.77,-52.56"/>
<polygon fill="black" stroke="black" points="264.19,-56.02 274.51,-53.64 264.96,-49.06 264.19,-56.02"/>
</g>
<!-- test&#45;&gt;deploy -->
<g id="edge2" class="edge">
<title>test&#45;&gt;deploy</title>
<path fill="none" stroke="black" d="M280.19,-53.77C288.4,-51.83 346.7,-38.08 388.56,-28.2"/>
<polygon fill="black" stroke="black" points="389.2,-31.65 398.13,-25.94 387.59,-24.83 389.2,-31.65"/>
</g>
<!-- compile_frontend -->
<g id="node4" class="node">
<title>compile_frontend</title>
<ellipse fill="none" stroke="black" cx="94.99" cy="-307" rx="76.94" ry="18"/>
<text xml:space="preserve" text-anchor="middle" x="94.99" y="-301.95" font-family="Times,serif" font-size="14.00">compile_frontend</text>
</g>
<!-- link -->
<g id="node7" class="node">
<title>link</title>
<ellipse fill="none" stroke="black" cx="278.22" cy="-361" rx="27" ry="18"/>
<text xml:space="preserve" text-anchor="middle" x="278.22" y="-355.95" font-family="Times,serif" font-size="14.00">link</text>
</g>
<!-- compile_frontend&#45;&gt;link -->
<g id="edge3" class="edge">
<title>compile_frontend&#45;&gt;link</title>
<path fill="none" stroke="black" d="M143.61,-321.19C174.48,-330.39 214.03,-342.17 242.07,-350.53"/>
<polygon fill="black" stroke="black" points="240.92,-353.84 251.5,-353.34 242.92,-347.13 240.92,-353.84"/>
</g>
<!-- compile_backend -->
<g id="node5" class="node">
<title>compile_backend</title>
<ellipse fill="none" stroke="black" cx="94.99" cy="-361" rx="76.43" ry="18"/>
<text xml:space="preserve" text-anchor="middle" x="94.99" y="-355.95" font-family="Times,serif" font-size="14.00">compile_backend</text>
</g>
<!-- compile_backend&#45;&gt;link -->
<g id="edge4" class="edge">
<title>compile_backend&#45;&gt;link</title>
<path fill="none" stroke="black" d="M171.8,-361C195.09,-361 219.73,-361 239.32,-361"/>
<polygon fill="black" stroke="black" points="239.3,-364.5 249.3,-361 239.3,-357.5 239.3,-364.5"/>
</g>
<!-- compile_common -->
<g id="node6" class="node">
<title>compile_common</title>
<ellipse fill="none" stroke="black" cx="94.99" cy="-415" rx="78.99" ry="18"/>
<text xml:space="preserve" text-anchor="middle" x="94.99" y="-409.95" font-family="Times,serif" font-size="14.00">compile_common</text>
</g>
<!-- compile_common&#45;&gt;link -->
<g id="edge5" class="edge">
<title>compile_common&#45;&gt;link</title>
<path fill="none" stroke="black" d="M144.08,-400.67C174.96,-391.47 214.35,-379.73 242.25,-371.42"/>
<polygon fill="black" stroke="black" points="243.05,-374.83 251.63,-368.62 241.05,-368.13 243.05,-374.83"/>
</g>
<!-- unit_test -->
<g id="node8" class="node">
<title>unit_test</title>
<ellipse fill="none" stroke="black" cx="278.22" cy="-92" rx="42.65" ry="18"/>
<text xml:space="preserve" text-anchor="middle" x="278.22" y="-86.95" font-family="Times,serif" font-size="14.00">unit_test</text>
</g>
<!-- test_report -->
<g id="node11" class="node">
<title>test_report</title>
<ellipse fill="none" stroke="black" cx="432.79" cy="-146" rx="50.33" ry="18"/>
<text xml:space="preserve" text-anchor="middle" x="432.79" y="-140.95" font-family="Times,serif" font-size="14.00">test_report</text>
</g>
<!-- unit_test&#45;&gt;test_report -->
<g id="edge6" class="edge">
<title>unit_test&#45;&gt;test_report</title>
<path fill="none" stroke="black" d="M311.58,-103.45C333.04,-111.05 361.55,-121.14 385.41,-129.59"/>
<polygon fill="black" stroke="black" points="383.99,-132.8 394.58,-132.83 386.33,-126.2 383.99,-132.8"/>
</g>
<!-- integration_test -->
<g id="node9" class="node">
<title>integration_test</title>
<ellipse fill="none" stroke="black" cx="278.22" cy="-146" rx="68.24" ry="18"/>
<text xml:space="preserve" text-anchor="middle" x="278.22" y="-140.95" font-family="Times,serif" font-size="14.00">integration_test</text>
</g>
<!-- integration_test&#45;&gt;test_report -->
<g id="edge7" class="edge">
<title>integration_test&#45;&gt;test_report</title>
<path fill="none" stroke="black" d="M346.58,-146C354.63,-146 362.81,-146 370.76,-146"/>
<polygon fill="black" stroke="black" points="370.68,-149.5 380.68,-146 370.68,-142.5 370.68,-149.5"/>
</g>
<!-- e2e_test -->
<g id="node10" class="node">
<title>e2e_test</title>
<ellipse fill="none" stroke="black" cx="278.22" cy="-200" rx="41.12" ry="18"/>
<text xml:space="preserve" text-anchor="middle" x="278.22" y="-194.95" font-family="Times,serif" font-size="14.00">e2e_test</text>
</g>
<!-- e2e_test&#45;&gt;test_report -->
<g id="edge8" class="edge">
<title>e2e_test&#45;&gt;test_report</title>
<path fill="none" stroke="black" d="M310.83,-188.81C332.33,-181.2 361.13,-171.01 385.24,-162.48"/>
<polygon fill="black" stroke="black" points="386.25,-165.83 394.51,-159.19 383.92,-159.23 386.25,-165.83"/>
</g>
</g>
</svg>
